<svg width="1440" height="1024" viewBox="0 0 1440 1024" fill="none" xmlns="http://www.w3.org/2000/svg">
<rect width="1440" height="1024" fill="white"/>
<path d="M506.568 265L497.023 230.091H501.318L508.614 258.523H508.955L516.386 230.091H521.159L528.591 258.523H528.932L536.227 230.091H540.523L530.977 265H526.614L518.909 237.182H518.636L510.932 265H506.568ZM695.56 241C695.185 239.852 694.69 238.824 694.077 237.915C693.474 236.994 692.753 236.21 691.912 235.562C691.082 234.915 690.139 234.42 689.082 234.08C688.026 233.739 686.866 233.568 685.605 233.568C683.537 233.568 681.656 234.102 679.963 235.17C678.27 236.239 676.923 237.812 675.923 239.892C674.923 241.972 674.423 244.523 674.423 247.545C674.423 250.568 674.929 253.119 675.94 255.199C676.952 257.278 678.321 258.852 680.048 259.92C681.776 260.989 683.719 261.523 685.878 261.523C687.878 261.523 689.639 261.097 691.162 260.244C692.696 259.381 693.889 258.165 694.741 256.597C695.605 255.017 696.037 253.159 696.037 251.023L697.332 251.295H686.832V247.545H700.128V251.295C700.128 254.17 699.514 256.67 698.287 258.795C697.071 260.92 695.389 262.568 693.241 263.739C691.105 264.898 688.651 265.477 685.878 265.477C682.787 265.477 680.071 264.75 677.73 263.295C675.401 261.841 673.582 259.773 672.276 257.091C670.98 254.409 670.332 251.227 670.332 247.545C670.332 244.784 670.702 242.301 671.44 240.097C672.19 237.881 673.247 235.994 674.611 234.438C675.974 232.881 677.588 231.688 679.452 230.858C681.315 230.028 683.366 229.614 685.605 229.614C687.446 229.614 689.162 229.892 690.753 230.449C692.355 230.994 693.781 231.773 695.031 232.784C696.293 233.784 697.344 234.983 698.185 236.381C699.026 237.767 699.605 239.307 699.923 241H695.56ZM817.571 265V230.091H821.798V261.25H838.026V265H817.571Z" fill="#6AAA64"/>
<path d="M553.443 265.545C551.08 265.545 549.006 264.983 547.222 263.858C545.449 262.733 544.062 261.159 543.062 259.136C542.074 257.114 541.58 254.75 541.58 252.045C541.58 249.318 542.074 246.937 543.062 244.903C544.062 242.869 545.449 241.29 547.222 240.165C549.006 239.04 551.08 238.477 553.443 238.477C555.807 238.477 557.875 239.04 559.648 240.165C561.432 241.29 562.818 242.869 563.807 244.903C564.807 246.937 565.307 249.318 565.307 252.045C565.307 254.75 564.807 257.114 563.807 259.136C562.818 261.159 561.432 262.733 559.648 263.858C557.875 264.983 555.807 265.545 553.443 265.545ZM553.443 261.932C555.239 261.932 556.716 261.472 557.875 260.551C559.034 259.631 559.892 258.42 560.449 256.92C561.006 255.42 561.284 253.795 561.284 252.045C561.284 250.295 561.006 248.665 560.449 247.153C559.892 245.642 559.034 244.42 557.875 243.489C556.716 242.557 555.239 242.091 553.443 242.091C551.648 242.091 550.17 242.557 549.011 243.489C547.852 244.42 546.994 245.642 546.438 247.153C545.881 248.665 545.602 250.295 545.602 252.045C545.602 253.795 545.881 255.42 546.438 256.92C546.994 258.42 547.852 259.631 549.011 260.551C550.17 261.472 551.648 261.932 553.443 261.932ZM571.447 265V238.818H575.334V242.773H575.607C576.084 241.477 576.947 240.426 578.197 239.619C579.447 238.812 580.857 238.409 582.425 238.409C582.72 238.409 583.089 238.415 583.533 238.426C583.976 238.437 584.311 238.455 584.538 238.477V242.568C584.402 242.534 584.089 242.483 583.601 242.415C583.124 242.335 582.618 242.295 582.084 242.295C580.811 242.295 579.675 242.562 578.675 243.097C577.686 243.619 576.902 244.347 576.322 245.278C575.754 246.199 575.47 247.25 575.47 248.432V265H571.447ZM622.345 230.091V265H618.322V230.091H622.345ZM640.69 265.545C638.168 265.545 635.991 264.989 634.162 263.875C632.344 262.75 630.94 261.182 629.952 259.17C628.974 257.148 628.486 254.795 628.486 252.114C628.486 249.432 628.974 247.068 629.952 245.023C630.94 242.966 632.315 241.364 634.077 240.216C635.849 239.057 637.918 238.477 640.281 238.477C641.645 238.477 642.991 238.705 644.321 239.159C645.651 239.614 646.861 240.352 647.952 241.375C649.043 242.386 649.912 243.727 650.56 245.398C651.207 247.068 651.531 249.125 651.531 251.568V253.273H631.349V249.795H647.44C647.44 248.318 647.145 247 646.554 245.841C645.974 244.682 645.145 243.767 644.065 243.097C642.997 242.426 641.736 242.091 640.281 242.091C638.679 242.091 637.293 242.489 636.122 243.284C634.963 244.068 634.071 245.091 633.446 246.352C632.821 247.614 632.509 248.966 632.509 250.409V252.727C632.509 254.705 632.849 256.381 633.531 257.756C634.224 259.119 635.185 260.159 636.412 260.875C637.639 261.58 639.065 261.932 640.69 261.932C641.747 261.932 642.702 261.784 643.554 261.489C644.418 261.182 645.162 260.727 645.787 260.125C646.412 259.511 646.895 258.75 647.236 257.841L651.122 258.932C650.713 260.25 650.026 261.409 649.06 262.409C648.094 263.398 646.901 264.17 645.48 264.727C644.06 265.273 642.463 265.545 640.69 265.545ZM733.869 265V238.818H737.756V242.909H738.097C738.642 241.511 739.523 240.426 740.739 239.653C741.955 238.869 743.415 238.477 745.119 238.477C746.847 238.477 748.284 238.869 749.432 239.653C750.591 240.426 751.494 241.511 752.142 242.909H752.415C753.085 241.557 754.091 240.483 755.432 239.688C756.773 238.881 758.381 238.477 760.256 238.477C762.597 238.477 764.511 239.21 766 240.676C767.489 242.131 768.233 244.398 768.233 247.477V265H764.21V247.477C764.21 245.545 763.682 244.165 762.625 243.335C761.568 242.506 760.324 242.091 758.892 242.091C757.051 242.091 755.625 242.648 754.614 243.761C753.602 244.864 753.097 246.261 753.097 247.955V265H749.006V247.068C749.006 245.58 748.523 244.381 747.557 243.472C746.591 242.551 745.347 242.091 743.824 242.091C742.778 242.091 741.801 242.369 740.892 242.926C739.994 243.483 739.267 244.256 738.71 245.244C738.165 246.222 737.892 247.352 737.892 248.636V265H733.869ZM786.565 265.545C784.043 265.545 781.866 264.989 780.037 263.875C778.219 262.75 776.815 261.182 775.827 259.17C774.849 257.148 774.361 254.795 774.361 252.114C774.361 249.432 774.849 247.068 775.827 245.023C776.815 242.966 778.19 241.364 779.952 240.216C781.724 239.057 783.793 238.477 786.156 238.477C787.52 238.477 788.866 238.705 790.196 239.159C791.526 239.614 792.736 240.352 793.827 241.375C794.918 242.386 795.787 243.727 796.435 245.398C797.082 247.068 797.406 249.125 797.406 251.568V253.273H777.224V249.795H793.315C793.315 248.318 793.02 247 792.429 245.841C791.849 244.682 791.02 243.767 789.94 243.097C788.872 242.426 787.611 242.091 786.156 242.091C784.554 242.091 783.168 242.489 781.997 243.284C780.838 244.068 779.946 245.091 779.321 246.352C778.696 247.614 778.384 248.966 778.384 250.409V252.727C778.384 254.705 778.724 256.381 779.406 257.756C780.099 259.119 781.06 260.159 782.287 260.875C783.514 261.58 784.94 261.932 786.565 261.932C787.622 261.932 788.577 261.784 789.429 261.489C790.293 261.182 791.037 260.727 791.662 260.125C792.287 259.511 792.77 258.75 793.111 257.841L796.997 258.932C796.588 260.25 795.901 261.409 794.935 262.409C793.969 263.398 792.776 264.17 791.355 264.727C789.935 265.273 788.338 265.545 786.565 265.545ZM854.662 265.545C852.298 265.545 850.224 264.983 848.44 263.858C846.668 262.733 845.281 261.159 844.281 259.136C843.293 257.114 842.798 254.75 842.798 252.045C842.798 249.318 843.293 246.937 844.281 244.903C845.281 242.869 846.668 241.29 848.44 240.165C850.224 239.04 852.298 238.477 854.662 238.477C857.026 238.477 859.094 239.04 860.866 240.165C862.651 241.29 864.037 242.869 865.026 244.903C866.026 246.937 866.526 249.318 866.526 252.045C866.526 254.75 866.026 257.114 865.026 259.136C864.037 261.159 862.651 262.733 860.866 263.858C859.094 264.983 857.026 265.545 854.662 265.545ZM854.662 261.932C856.457 261.932 857.935 261.472 859.094 260.551C860.253 259.631 861.111 258.42 861.668 256.92C862.224 255.42 862.503 253.795 862.503 252.045C862.503 250.295 862.224 248.665 861.668 247.153C861.111 245.642 860.253 244.42 859.094 243.489C857.935 242.557 856.457 242.091 854.662 242.091C852.866 242.091 851.389 242.557 850.23 243.489C849.071 244.42 848.213 245.642 847.656 247.153C847.099 248.665 846.821 250.295 846.821 252.045C846.821 253.795 847.099 255.42 847.656 256.92C848.213 258.42 849.071 259.631 850.23 260.551C851.389 261.472 852.866 261.932 854.662 261.932ZM901.916 265V238.818H905.939V265H901.916ZM903.962 234.455C903.178 234.455 902.501 234.188 901.933 233.653C901.376 233.119 901.098 232.477 901.098 231.727C901.098 230.977 901.376 230.335 901.933 229.801C902.501 229.267 903.178 229 903.962 229C904.746 229 905.416 229.267 905.973 229.801C906.541 230.335 906.825 230.977 906.825 231.727C906.825 232.477 906.541 233.119 905.973 233.653C905.416 234.188 904.746 234.455 903.962 234.455ZM917.33 249.25V265H913.307V238.818H917.193V242.909H917.534C918.148 241.58 919.08 240.511 920.33 239.705C921.58 238.886 923.193 238.477 925.17 238.477C926.943 238.477 928.494 238.841 929.824 239.568C931.153 240.284 932.188 241.375 932.926 242.841C933.665 244.295 934.034 246.136 934.034 248.364V265H930.011V248.636C930.011 246.58 929.477 244.977 928.409 243.83C927.341 242.67 925.875 242.091 924.011 242.091C922.727 242.091 921.58 242.369 920.568 242.926C919.568 243.483 918.778 244.295 918.199 245.364C917.619 246.432 917.33 247.727 917.33 249.25Z" fill="black"/>
<path d="M598.396 265.545C596.214 265.545 594.288 264.994 592.618 263.892C590.947 262.778 589.641 261.21 588.697 259.188C587.754 257.153 587.283 254.75 587.283 251.977C587.283 249.227 587.754 246.841 588.697 244.818C589.641 242.795 590.953 241.233 592.635 240.131C594.317 239.028 596.26 238.477 598.464 238.477C600.169 238.477 601.516 238.761 602.504 239.33C603.504 239.886 604.266 240.523 604.788 241.239C605.322 241.943 605.737 242.523 606.033 242.977H606.374V230.091H610.396V265H606.51V260.977H606.033C605.737 261.455 605.317 262.057 604.771 262.784C604.226 263.5 603.447 264.142 602.436 264.71C601.425 265.267 600.078 265.545 598.396 265.545ZM598.942 261.932C600.555 261.932 601.919 261.511 603.033 260.67C604.146 259.818 604.993 258.642 605.572 257.142C606.152 255.631 606.442 253.886 606.442 251.909C606.442 249.955 606.158 248.244 605.589 246.778C605.021 245.301 604.18 244.153 603.067 243.335C601.953 242.506 600.578 242.091 598.942 242.091C597.237 242.091 595.817 242.528 594.68 243.403C593.555 244.267 592.709 245.443 592.141 246.932C591.584 248.409 591.305 250.068 591.305 251.909C591.305 253.773 591.589 255.466 592.158 256.989C592.737 258.5 593.589 259.705 594.714 260.602C595.851 261.489 597.26 261.932 598.942 261.932ZM714.527 265.614C712.868 265.614 711.362 265.301 710.01 264.676C708.658 264.04 707.584 263.125 706.788 261.932C705.993 260.727 705.595 259.273 705.595 257.568C705.595 256.068 705.891 254.852 706.482 253.92C707.072 252.977 707.862 252.239 708.851 251.705C709.839 251.17 710.93 250.773 712.124 250.511C713.328 250.239 714.538 250.023 715.754 249.864C717.345 249.659 718.635 249.506 719.624 249.403C720.624 249.29 721.351 249.102 721.805 248.841C722.271 248.58 722.504 248.125 722.504 247.477V247.341C722.504 245.659 722.044 244.352 721.124 243.42C720.214 242.489 718.834 242.023 716.982 242.023C715.061 242.023 713.555 242.443 712.464 243.284C711.374 244.125 710.607 245.023 710.163 245.977L706.345 244.614C707.027 243.023 707.936 241.784 709.072 240.898C710.22 240 711.47 239.375 712.822 239.023C714.186 238.659 715.527 238.477 716.845 238.477C717.686 238.477 718.652 238.58 719.743 238.784C720.845 238.977 721.908 239.381 722.93 239.994C723.964 240.608 724.822 241.534 725.504 242.773C726.186 244.011 726.527 245.67 726.527 247.75V265H722.504V261.455H722.3C722.027 262.023 721.572 262.631 720.936 263.278C720.3 263.926 719.453 264.477 718.396 264.932C717.339 265.386 716.05 265.614 714.527 265.614ZM715.141 262C716.732 262 718.072 261.688 719.163 261.062C720.266 260.438 721.095 259.631 721.652 258.642C722.22 257.653 722.504 256.614 722.504 255.523V251.841C722.334 252.045 721.959 252.233 721.379 252.403C720.811 252.562 720.152 252.705 719.402 252.83C718.663 252.943 717.942 253.045 717.237 253.136C716.544 253.216 715.982 253.284 715.55 253.341C714.504 253.477 713.527 253.699 712.618 254.006C711.72 254.301 710.993 254.75 710.436 255.352C709.891 255.943 709.618 256.75 709.618 257.773C709.618 259.17 710.135 260.227 711.169 260.943C712.214 261.648 713.538 262 715.141 262ZM883.234 275.364C881.291 275.364 879.621 275.114 878.223 274.614C876.825 274.125 875.661 273.477 874.729 272.67C873.808 271.875 873.075 271.023 872.53 270.114L875.734 267.864C876.098 268.341 876.558 268.886 877.115 269.5C877.672 270.125 878.433 270.665 879.399 271.119C880.376 271.585 881.655 271.818 883.234 271.818C885.348 271.818 887.092 271.307 888.467 270.284C889.842 269.261 890.53 267.659 890.53 265.477V260.159H890.189C889.893 260.636 889.473 261.227 888.928 261.932C888.393 262.625 887.621 263.244 886.609 263.79C885.609 264.324 884.257 264.591 882.553 264.591C880.439 264.591 878.541 264.091 876.859 263.091C875.189 262.091 873.865 260.636 872.888 258.727C871.922 256.818 871.439 254.5 871.439 251.773C871.439 249.091 871.911 246.756 872.854 244.767C873.797 242.767 875.109 241.222 876.791 240.131C878.473 239.028 880.416 238.477 882.621 238.477C884.325 238.477 885.678 238.761 886.678 239.33C887.689 239.886 888.462 240.523 888.996 241.239C889.541 241.943 889.962 242.523 890.257 242.977H890.666V238.818H894.553V265.75C894.553 268 894.041 269.83 893.018 271.239C892.007 272.659 890.643 273.699 888.928 274.358C887.223 275.028 885.325 275.364 883.234 275.364ZM883.098 260.977C884.712 260.977 886.075 260.608 887.189 259.869C888.303 259.131 889.149 258.068 889.729 256.682C890.308 255.295 890.598 253.636 890.598 251.705C890.598 249.818 890.314 248.153 889.746 246.71C889.178 245.267 888.337 244.136 887.223 243.318C886.109 242.5 884.734 242.091 883.098 242.091C881.393 242.091 879.973 242.523 878.837 243.386C877.712 244.25 876.865 245.409 876.297 246.864C875.74 248.318 875.462 249.932 875.462 251.705C875.462 253.523 875.746 255.131 876.314 256.528C876.893 257.915 877.746 259.006 878.871 259.801C880.007 260.585 881.416 260.977 883.098 260.977Z" fill="#D1B036"/>
<path d="M469.114 371V353.545H479.648V355.42H471.227V361.318H479.102V363.193H471.227V369.125H479.784V371H469.114ZM483.185 371V357.909H485.128V359.955H485.298C485.571 359.256 486.011 358.713 486.619 358.327C487.227 357.935 487.957 357.739 488.81 357.739C489.673 357.739 490.392 357.935 490.966 358.327C491.545 358.713 491.997 359.256 492.321 359.955H492.457C492.793 359.278 493.295 358.741 493.966 358.344C494.636 357.94 495.44 357.739 496.378 357.739C497.548 357.739 498.506 358.105 499.25 358.838C499.994 359.565 500.366 360.699 500.366 362.239V371H498.355V362.239C498.355 361.273 498.091 360.582 497.562 360.168C497.034 359.753 496.412 359.545 495.696 359.545C494.776 359.545 494.063 359.824 493.557 360.381C493.051 360.932 492.798 361.631 492.798 362.477V371H490.753V362.034C490.753 361.29 490.511 360.69 490.028 360.236C489.545 359.776 488.923 359.545 488.162 359.545C487.639 359.545 487.151 359.685 486.696 359.963C486.247 360.241 485.884 360.628 485.605 361.122C485.332 361.611 485.196 362.176 485.196 362.818V371H483.185ZM507.896 371.307C507.067 371.307 506.314 371.151 505.638 370.838C504.962 370.52 504.425 370.062 504.027 369.466C503.629 368.864 503.43 368.136 503.43 367.284C503.43 366.534 503.578 365.926 503.874 365.46C504.169 364.989 504.564 364.619 505.058 364.352C505.553 364.085 506.098 363.886 506.695 363.756C507.297 363.619 507.902 363.511 508.51 363.432C509.305 363.33 509.95 363.253 510.445 363.202C510.945 363.145 511.308 363.051 511.536 362.92C511.768 362.79 511.885 362.562 511.885 362.239V362.17C511.885 361.33 511.655 360.676 511.195 360.21C510.74 359.744 510.05 359.511 509.124 359.511C508.163 359.511 507.411 359.722 506.865 360.142C506.32 360.562 505.936 361.011 505.714 361.489L503.805 360.807C504.146 360.011 504.601 359.392 505.169 358.949C505.743 358.5 506.368 358.187 507.044 358.011C507.726 357.83 508.396 357.739 509.055 357.739C509.476 357.739 509.959 357.79 510.504 357.892C511.055 357.989 511.587 358.19 512.098 358.497C512.615 358.804 513.044 359.267 513.385 359.886C513.726 360.506 513.896 361.335 513.896 362.375V371H511.885V369.227H511.783C511.646 369.511 511.419 369.815 511.101 370.139C510.783 370.463 510.359 370.739 509.831 370.966C509.303 371.193 508.658 371.307 507.896 371.307ZM508.203 369.5C508.999 369.5 509.669 369.344 510.214 369.031C510.766 368.719 511.18 368.315 511.459 367.821C511.743 367.327 511.885 366.807 511.885 366.261V364.42C511.8 364.523 511.612 364.616 511.322 364.702C511.038 364.781 510.709 364.852 510.334 364.915C509.964 364.972 509.604 365.023 509.251 365.068C508.905 365.108 508.624 365.142 508.408 365.17C507.885 365.239 507.396 365.349 506.942 365.503C506.493 365.651 506.129 365.875 505.851 366.176C505.578 366.472 505.442 366.875 505.442 367.386C505.442 368.085 505.7 368.614 506.217 368.972C506.74 369.324 507.402 369.5 508.203 369.5ZM517.567 371V357.909H519.579V371H517.567ZM518.59 355.727C518.198 355.727 517.86 355.594 517.576 355.327C517.298 355.06 517.158 354.739 517.158 354.364C517.158 353.989 517.298 353.668 517.576 353.401C517.86 353.134 518.198 353 518.59 353C518.982 353 519.317 353.134 519.596 353.401C519.88 353.668 520.022 353.989 520.022 354.364C520.022 354.739 519.88 355.06 519.596 355.327C519.317 355.594 518.982 355.727 518.59 355.727ZM525.274 353.545V371H523.263V353.545H525.274Z" fill="black"/>
<rect x="468" y="386" width="503" height="47" rx="9" fill="white" stroke="black" stroke-width="2"/>
<path d="M469.114 475V457.545H475.011C476.381 457.545 477.5 457.793 478.369 458.287C479.244 458.776 479.892 459.438 480.312 460.273C480.733 461.108 480.943 462.04 480.943 463.068C480.943 464.097 480.733 465.031 480.312 465.872C479.898 466.713 479.256 467.384 478.386 467.884C477.517 468.378 476.403 468.625 475.045 468.625H470.818V466.75H474.977C475.915 466.75 476.668 466.588 477.236 466.264C477.804 465.94 478.216 465.503 478.472 464.952C478.733 464.395 478.864 463.767 478.864 463.068C478.864 462.369 478.733 461.744 478.472 461.193C478.216 460.642 477.801 460.21 477.227 459.898C476.653 459.58 475.892 459.42 474.943 459.42H471.227V475H469.114ZM487.928 475.307C487.098 475.307 486.345 475.151 485.669 474.838C484.993 474.52 484.456 474.062 484.058 473.466C483.661 472.864 483.462 472.136 483.462 471.284C483.462 470.534 483.609 469.926 483.905 469.46C484.2 468.989 484.595 468.619 485.089 468.352C485.584 468.085 486.129 467.886 486.726 467.756C487.328 467.619 487.933 467.511 488.541 467.432C489.337 467.33 489.982 467.253 490.476 467.202C490.976 467.145 491.339 467.051 491.567 466.92C491.8 466.79 491.916 466.562 491.916 466.239V466.17C491.916 465.33 491.686 464.676 491.226 464.21C490.771 463.744 490.081 463.511 489.155 463.511C488.195 463.511 487.442 463.722 486.896 464.142C486.351 464.562 485.967 465.011 485.746 465.489L483.837 464.807C484.178 464.011 484.632 463.392 485.2 462.949C485.774 462.5 486.399 462.187 487.075 462.011C487.757 461.83 488.428 461.739 489.087 461.739C489.507 461.739 489.99 461.79 490.536 461.892C491.087 461.989 491.618 462.19 492.129 462.497C492.646 462.804 493.075 463.267 493.416 463.886C493.757 464.506 493.928 465.335 493.928 466.375V475H491.916V473.227H491.814C491.678 473.511 491.45 473.815 491.132 474.139C490.814 474.463 490.391 474.739 489.862 474.966C489.334 475.193 488.689 475.307 487.928 475.307ZM488.234 473.5C489.03 473.5 489.7 473.344 490.246 473.031C490.797 472.719 491.212 472.315 491.49 471.821C491.774 471.327 491.916 470.807 491.916 470.261V468.42C491.831 468.523 491.643 468.616 491.354 468.702C491.07 468.781 490.74 468.852 490.365 468.915C489.996 468.972 489.635 469.023 489.283 469.068C488.936 469.108 488.655 469.142 488.439 469.17C487.916 469.239 487.428 469.349 486.973 469.503C486.524 469.651 486.161 469.875 485.882 470.176C485.609 470.472 485.473 470.875 485.473 471.386C485.473 472.085 485.732 472.614 486.249 472.972C486.771 473.324 487.433 473.5 488.234 473.5ZM506.871 464.841L505.065 465.352C504.951 465.051 504.783 464.759 504.562 464.474C504.346 464.185 504.05 463.946 503.675 463.759C503.3 463.571 502.82 463.477 502.235 463.477C501.434 463.477 500.766 463.662 500.232 464.031C499.704 464.395 499.44 464.858 499.44 465.42C499.44 465.92 499.621 466.315 499.985 466.605C500.349 466.895 500.917 467.136 501.69 467.33L503.633 467.807C504.803 468.091 505.675 468.526 506.249 469.111C506.823 469.69 507.11 470.437 507.11 471.352C507.11 472.102 506.894 472.773 506.462 473.364C506.036 473.955 505.44 474.42 504.673 474.761C503.906 475.102 503.013 475.273 501.996 475.273C500.661 475.273 499.556 474.983 498.681 474.403C497.806 473.824 497.252 472.977 497.019 471.864L498.928 471.386C499.11 472.091 499.454 472.619 499.96 472.972C500.471 473.324 501.138 473.5 501.962 473.5C502.9 473.5 503.644 473.301 504.195 472.903C504.752 472.5 505.031 472.017 505.031 471.455C505.031 471 504.871 470.619 504.553 470.312C504.235 470 503.746 469.767 503.087 469.614L500.906 469.102C499.707 468.818 498.826 468.378 498.263 467.781C497.707 467.179 497.428 466.426 497.428 465.523C497.428 464.784 497.636 464.131 498.05 463.562C498.471 462.994 499.042 462.548 499.763 462.224C500.491 461.901 501.315 461.739 502.235 461.739C503.531 461.739 504.548 462.023 505.286 462.591C506.031 463.159 506.559 463.909 506.871 464.841ZM519.411 464.841L517.604 465.352C517.49 465.051 517.322 464.759 517.101 464.474C516.885 464.185 516.589 463.946 516.214 463.759C515.839 463.571 515.359 463.477 514.774 463.477C513.973 463.477 513.305 463.662 512.771 464.031C512.243 464.395 511.979 464.858 511.979 465.42C511.979 465.92 512.161 466.315 512.524 466.605C512.888 466.895 513.456 467.136 514.229 467.33L516.172 467.807C517.342 468.091 518.214 468.526 518.788 469.111C519.362 469.69 519.649 470.437 519.649 471.352C519.649 472.102 519.433 472.773 519.001 473.364C518.575 473.955 517.979 474.42 517.212 474.761C516.445 475.102 515.553 475.273 514.536 475.273C513.2 475.273 512.095 474.983 511.22 474.403C510.345 473.824 509.791 472.977 509.558 471.864L511.467 471.386C511.649 472.091 511.993 472.619 512.499 472.972C513.01 473.324 513.678 473.5 514.501 473.5C515.439 473.5 516.183 473.301 516.734 472.903C517.291 472.5 517.57 472.017 517.57 471.455C517.57 471 517.411 470.619 517.092 470.312C516.774 470 516.286 469.767 515.626 469.614L513.445 469.102C512.246 468.818 511.365 468.378 510.803 467.781C510.246 467.179 509.967 466.426 509.967 465.523C509.967 464.784 510.175 464.131 510.589 463.562C511.01 462.994 511.581 462.548 512.303 462.224C513.03 461.901 513.854 461.739 514.774 461.739C516.07 461.739 517.087 462.023 517.825 462.591C518.57 463.159 519.098 463.909 519.411 464.841ZM525.643 475L521.654 461.909H523.768L526.597 471.932H526.734L529.529 461.909H531.677L534.438 471.898H534.575L537.404 461.909H539.518L535.529 475H533.552L530.688 464.943H530.484L527.62 475H525.643ZM547.05 475.273C545.868 475.273 544.831 474.991 543.939 474.429C543.053 473.866 542.359 473.08 541.859 472.068C541.365 471.057 541.118 469.875 541.118 468.523C541.118 467.159 541.365 465.969 541.859 464.952C542.359 463.935 543.053 463.145 543.939 462.582C544.831 462.02 545.868 461.739 547.05 461.739C548.232 461.739 549.266 462.02 550.152 462.582C551.044 463.145 551.737 463.935 552.232 464.952C552.732 465.969 552.982 467.159 552.982 468.523C552.982 469.875 552.732 471.057 552.232 472.068C551.737 473.08 551.044 473.866 550.152 474.429C549.266 474.991 548.232 475.273 547.05 475.273ZM547.05 473.466C547.947 473.466 548.686 473.236 549.266 472.776C549.845 472.315 550.274 471.71 550.553 470.96C550.831 470.21 550.97 469.398 550.97 468.523C550.97 467.648 550.831 466.832 550.553 466.077C550.274 465.321 549.845 464.71 549.266 464.244C548.686 463.778 547.947 463.545 547.05 463.545C546.152 463.545 545.413 463.778 544.834 464.244C544.254 464.71 543.825 465.321 543.547 466.077C543.268 466.832 543.129 467.648 543.129 468.523C543.129 469.398 543.268 470.21 543.547 470.96C543.825 471.71 544.254 472.315 544.834 472.776C545.413 473.236 546.152 473.466 547.05 473.466ZM556.052 475V461.909H557.995V463.886H558.131C558.37 463.239 558.802 462.713 559.427 462.31C560.052 461.906 560.756 461.705 561.54 461.705C561.688 461.705 561.873 461.707 562.094 461.713C562.316 461.719 562.484 461.727 562.597 461.739V463.784C562.529 463.767 562.373 463.741 562.129 463.707C561.89 463.668 561.637 463.648 561.37 463.648C560.734 463.648 560.165 463.781 559.665 464.048C559.171 464.31 558.779 464.673 558.489 465.139C558.205 465.599 558.063 466.125 558.063 466.716V475H556.052ZM569.526 475.273C568.435 475.273 567.472 474.997 566.637 474.446C565.802 473.889 565.148 473.105 564.677 472.094C564.205 471.077 563.969 469.875 563.969 468.489C563.969 467.114 564.205 465.92 564.677 464.909C565.148 463.898 565.805 463.116 566.646 462.565C567.487 462.014 568.458 461.739 569.56 461.739C570.413 461.739 571.086 461.881 571.58 462.165C572.08 462.443 572.461 462.761 572.722 463.119C572.989 463.472 573.197 463.761 573.344 463.989H573.515V457.545H575.526V475H573.583V472.989H573.344C573.197 473.227 572.987 473.528 572.714 473.892C572.441 474.25 572.052 474.571 571.546 474.855C571.04 475.134 570.367 475.273 569.526 475.273ZM569.799 473.466C570.606 473.466 571.288 473.256 571.844 472.835C572.401 472.409 572.825 471.821 573.114 471.071C573.404 470.315 573.549 469.443 573.549 468.455C573.549 467.477 573.407 466.622 573.123 465.889C572.839 465.151 572.418 464.577 571.862 464.168C571.305 463.753 570.617 463.545 569.799 463.545C568.947 463.545 568.237 463.764 567.668 464.202C567.106 464.634 566.683 465.222 566.398 465.966C566.12 466.705 565.981 467.534 565.981 468.455C565.981 469.386 566.123 470.233 566.407 470.994C566.697 471.75 567.123 472.352 567.685 472.801C568.254 473.244 568.958 473.466 569.799 473.466Z" fill="black"/>
<rect x="468" y="490" width="503" height="47" rx="9" fill="white" stroke="black" stroke-width="2"/>
<rect x="486" y="591" width="208" height="60" rx="13" fill="#6AAA64"/>
<path d="M560.114 629V611.545H562.227V627.125H570.341V629H560.114ZM578.659 629.273C577.477 629.273 576.44 628.991 575.548 628.429C574.662 627.866 573.969 627.08 573.469 626.068C572.974 625.057 572.727 623.875 572.727 622.523C572.727 621.159 572.974 619.969 573.469 618.952C573.969 617.935 574.662 617.145 575.548 616.582C576.44 616.02 577.477 615.739 578.659 615.739C579.841 615.739 580.875 616.02 581.761 616.582C582.653 617.145 583.347 617.935 583.841 618.952C584.341 619.969 584.591 621.159 584.591 622.523C584.591 623.875 584.341 625.057 583.841 626.068C583.347 627.08 582.653 627.866 581.761 628.429C580.875 628.991 579.841 629.273 578.659 629.273ZM578.659 627.466C579.557 627.466 580.295 627.236 580.875 626.776C581.455 626.315 581.884 625.71 582.162 624.96C582.44 624.21 582.58 623.398 582.58 622.523C582.58 621.648 582.44 620.832 582.162 620.077C581.884 619.321 581.455 618.71 580.875 618.244C580.295 617.778 579.557 617.545 578.659 617.545C577.761 617.545 577.023 617.778 576.443 618.244C575.864 618.71 575.435 619.321 575.156 620.077C574.878 620.832 574.739 621.648 574.739 622.523C574.739 623.398 574.878 624.21 575.156 624.96C575.435 625.71 575.864 626.315 576.443 626.776C577.023 627.236 577.761 627.466 578.659 627.466ZM592.945 634.182C591.974 634.182 591.138 634.057 590.44 633.807C589.741 633.562 589.158 633.239 588.692 632.835C588.232 632.438 587.866 632.011 587.593 631.557L589.195 630.432C589.377 630.67 589.607 630.943 589.886 631.25C590.164 631.562 590.545 631.832 591.028 632.06C591.516 632.293 592.156 632.409 592.945 632.409C594.002 632.409 594.874 632.153 595.562 631.642C596.249 631.131 596.593 630.33 596.593 629.239V626.58H596.423C596.275 626.818 596.065 627.114 595.792 627.466C595.525 627.812 595.138 628.122 594.633 628.395C594.133 628.662 593.457 628.795 592.604 628.795C591.548 628.795 590.599 628.545 589.758 628.045C588.923 627.545 588.261 626.818 587.772 625.864C587.289 624.909 587.048 623.75 587.048 622.386C587.048 621.045 587.283 619.878 587.755 618.884C588.227 617.884 588.883 617.111 589.724 616.565C590.565 616.014 591.536 615.739 592.638 615.739C593.491 615.739 594.167 615.881 594.667 616.165C595.173 616.443 595.559 616.761 595.826 617.119C596.099 617.472 596.309 617.761 596.457 617.989H596.661V615.909H598.604V629.375C598.604 630.5 598.349 631.415 597.837 632.119C597.332 632.83 596.65 633.349 595.792 633.679C594.94 634.014 593.991 634.182 592.945 634.182ZM592.877 626.989C593.684 626.989 594.366 626.804 594.923 626.435C595.479 626.065 595.903 625.534 596.192 624.841C596.482 624.148 596.627 623.318 596.627 622.352C596.627 621.409 596.485 620.577 596.201 619.855C595.917 619.134 595.496 618.568 594.94 618.159C594.383 617.75 593.695 617.545 592.877 617.545C592.025 617.545 591.315 617.761 590.746 618.193C590.184 618.625 589.761 619.205 589.477 619.932C589.198 620.659 589.059 621.466 589.059 622.352C589.059 623.261 589.201 624.065 589.485 624.764C589.775 625.457 590.201 626.003 590.763 626.401C591.332 626.793 592.036 626.989 592.877 626.989ZM602.286 629V615.909H604.298V629H602.286ZM603.309 613.727C602.917 613.727 602.579 613.594 602.295 613.327C602.016 613.06 601.877 612.739 601.877 612.364C601.877 611.989 602.016 611.668 602.295 611.401C602.579 611.134 602.917 611 603.309 611C603.701 611 604.036 611.134 604.315 611.401C604.599 611.668 604.741 611.989 604.741 612.364C604.741 612.739 604.599 613.06 604.315 613.327C604.036 613.594 603.701 613.727 603.309 613.727ZM609.993 621.125V629H607.982V615.909H609.925V617.955H610.095C610.402 617.29 610.868 616.756 611.493 616.352C612.118 615.943 612.925 615.739 613.913 615.739C614.8 615.739 615.575 615.92 616.24 616.284C616.905 616.642 617.422 617.188 617.791 617.92C618.161 618.648 618.345 619.568 618.345 620.682V629H616.334V620.818C616.334 619.79 616.067 618.989 615.533 618.415C614.999 617.835 614.266 617.545 613.334 617.545C612.692 617.545 612.118 617.685 611.612 617.963C611.112 618.241 610.717 618.648 610.428 619.182C610.138 619.716 609.993 620.364 609.993 621.125Z" fill="white"/>
<rect x="730" y="591" width="229" height="60" rx="13" fill="black"/>
<path d="M742.114 629V611.545H748.216C749.432 611.545 750.435 611.756 751.224 612.176C752.014 612.591 752.602 613.151 752.989 613.855C753.375 614.554 753.568 615.33 753.568 616.182C753.568 616.932 753.435 617.551 753.168 618.04C752.906 618.528 752.56 618.915 752.128 619.199C751.702 619.483 751.239 619.693 750.739 619.83V620C751.273 620.034 751.81 620.222 752.349 620.562C752.889 620.903 753.341 621.392 753.705 622.028C754.068 622.665 754.25 623.443 754.25 624.364C754.25 625.239 754.051 626.026 753.653 626.724C753.256 627.423 752.628 627.977 751.77 628.386C750.912 628.795 749.795 629 748.42 629H742.114ZM744.227 627.125H748.42C749.801 627.125 750.781 626.858 751.361 626.324C751.946 625.784 752.239 625.131 752.239 624.364C752.239 623.773 752.088 623.227 751.787 622.727C751.486 622.222 751.057 621.818 750.5 621.517C749.943 621.21 749.284 621.057 748.523 621.057H744.227V627.125ZM744.227 619.216H748.148C748.784 619.216 749.358 619.091 749.869 618.841C750.386 618.591 750.795 618.239 751.097 617.784C751.403 617.33 751.557 616.795 751.557 616.182C751.557 615.415 751.29 614.764 750.756 614.23C750.222 613.69 749.375 613.42 748.216 613.42H744.227V619.216ZM761.303 629.307C760.473 629.307 759.72 629.151 759.044 628.838C758.368 628.52 757.831 628.062 757.433 627.466C757.036 626.864 756.837 626.136 756.837 625.284C756.837 624.534 756.984 623.926 757.28 623.46C757.575 622.989 757.97 622.619 758.464 622.352C758.959 622.085 759.504 621.886 760.101 621.756C760.703 621.619 761.308 621.511 761.916 621.432C762.712 621.33 763.357 621.253 763.851 621.202C764.351 621.145 764.714 621.051 764.942 620.92C765.175 620.79 765.291 620.562 765.291 620.239V620.17C765.291 619.33 765.061 618.676 764.601 618.21C764.146 617.744 763.456 617.511 762.53 617.511C761.57 617.511 760.817 617.722 760.271 618.142C759.726 618.562 759.342 619.011 759.121 619.489L757.212 618.807C757.553 618.011 758.007 617.392 758.575 616.949C759.149 616.5 759.774 616.187 760.45 616.011C761.132 615.83 761.803 615.739 762.462 615.739C762.882 615.739 763.365 615.79 763.911 615.892C764.462 615.989 764.993 616.19 765.504 616.497C766.021 616.804 766.45 617.267 766.791 617.886C767.132 618.506 767.303 619.335 767.303 620.375V629H765.291V627.227H765.189C765.053 627.511 764.825 627.815 764.507 628.139C764.189 628.463 763.766 628.739 763.237 628.966C762.709 629.193 762.064 629.307 761.303 629.307ZM761.609 627.5C762.405 627.5 763.075 627.344 763.621 627.031C764.172 626.719 764.587 626.315 764.865 625.821C765.149 625.327 765.291 624.807 765.291 624.261V622.42C765.206 622.523 765.018 622.616 764.729 622.702C764.445 622.781 764.115 622.852 763.74 622.915C763.371 622.972 763.01 623.023 762.658 623.068C762.311 623.108 762.03 623.142 761.814 623.17C761.291 623.239 760.803 623.349 760.348 623.503C759.899 623.651 759.536 623.875 759.257 624.176C758.984 624.472 758.848 624.875 758.848 625.386C758.848 626.085 759.107 626.614 759.624 626.972C760.146 627.324 760.808 627.5 761.609 627.5ZM776.292 629.273C775.065 629.273 774.008 628.983 773.121 628.403C772.235 627.824 771.553 627.026 771.076 626.009C770.599 624.991 770.36 623.83 770.36 622.523C770.36 621.193 770.604 620.02 771.093 619.003C771.587 617.98 772.275 617.182 773.156 616.608C774.042 616.028 775.076 615.739 776.258 615.739C777.178 615.739 778.008 615.909 778.746 616.25C779.485 616.591 780.09 617.068 780.562 617.682C781.033 618.295 781.326 619.011 781.44 619.83H779.428C779.275 619.233 778.934 618.705 778.406 618.244C777.883 617.778 777.178 617.545 776.292 617.545C775.508 617.545 774.82 617.75 774.229 618.159C773.644 618.562 773.187 619.134 772.857 619.872C772.533 620.605 772.371 621.466 772.371 622.455C772.371 623.466 772.531 624.347 772.849 625.097C773.173 625.847 773.627 626.429 774.212 626.844C774.803 627.259 775.496 627.466 776.292 627.466C776.815 627.466 777.289 627.375 777.715 627.193C778.141 627.011 778.502 626.75 778.798 626.409C779.093 626.068 779.303 625.659 779.428 625.182H781.44C781.326 625.955 781.045 626.651 780.596 627.27C780.153 627.884 779.565 628.372 778.832 628.736C778.104 629.094 777.258 629.273 776.292 629.273ZM786.255 624.227L786.221 621.739H786.63L792.357 615.909H794.846L788.744 622.08H788.573L786.255 624.227ZM784.38 629V611.545H786.391V629H784.38ZM792.698 629L787.585 622.523L789.016 621.125L795.255 629H792.698ZM809.878 615.909V617.614H803.094V615.909H809.878ZM805.071 612.773H807.082V625.25C807.082 625.818 807.165 626.244 807.33 626.528C807.5 626.807 807.716 626.994 807.977 627.091C808.244 627.182 808.526 627.227 808.821 627.227C809.043 627.227 809.224 627.216 809.366 627.193C809.509 627.165 809.622 627.142 809.707 627.125L810.116 628.932C809.98 628.983 809.79 629.034 809.545 629.085C809.301 629.142 808.991 629.17 808.616 629.17C808.048 629.17 807.491 629.048 806.946 628.804C806.406 628.56 805.957 628.188 805.599 627.688C805.247 627.188 805.071 626.557 805.071 625.795V612.773ZM818.081 629.273C816.899 629.273 815.862 628.991 814.97 628.429C814.084 627.866 813.391 627.08 812.891 626.068C812.396 625.057 812.149 623.875 812.149 622.523C812.149 621.159 812.396 619.969 812.891 618.952C813.391 617.935 814.084 617.145 814.97 616.582C815.862 616.02 816.899 615.739 818.081 615.739C819.263 615.739 820.297 616.02 821.183 616.582C822.075 617.145 822.768 617.935 823.263 618.952C823.763 619.969 824.013 621.159 824.013 622.523C824.013 623.875 823.763 625.057 823.263 626.068C822.768 627.08 822.075 627.866 821.183 628.429C820.297 628.991 819.263 629.273 818.081 629.273ZM818.081 627.466C818.979 627.466 819.717 627.236 820.297 626.776C820.876 626.315 821.305 625.71 821.584 624.96C821.862 624.21 822.001 623.398 822.001 622.523C822.001 621.648 821.862 620.832 821.584 620.077C821.305 619.321 820.876 618.71 820.297 618.244C819.717 617.778 818.979 617.545 818.081 617.545C817.183 617.545 816.445 617.778 815.865 618.244C815.286 618.71 814.857 619.321 814.578 620.077C814.3 620.832 814.161 621.648 814.161 622.523C814.161 623.398 814.3 624.21 814.578 624.96C814.857 625.71 815.286 626.315 815.865 626.776C816.445 627.236 817.183 627.466 818.081 627.466ZM834.106 611.545H836.629L842.56 626.034H842.765L848.697 611.545H851.219V629H849.242V615.739H849.072L843.617 629H841.708L836.254 615.739H836.083V629H834.106V611.545ZM859.037 629.307C858.207 629.307 857.455 629.151 856.778 628.838C856.102 628.52 855.565 628.062 855.168 627.466C854.77 626.864 854.571 626.136 854.571 625.284C854.571 624.534 854.719 623.926 855.014 623.46C855.31 622.989 855.705 622.619 856.199 622.352C856.693 622.085 857.239 621.886 857.835 621.756C858.438 621.619 859.043 621.511 859.651 621.432C860.446 621.33 861.091 621.253 861.585 621.202C862.085 621.145 862.449 621.051 862.676 620.92C862.909 620.79 863.026 620.562 863.026 620.239V620.17C863.026 619.33 862.795 618.676 862.335 618.21C861.881 617.744 861.19 617.511 860.264 617.511C859.304 617.511 858.551 617.722 858.006 618.142C857.46 618.562 857.077 619.011 856.855 619.489L854.946 618.807C855.287 618.011 855.741 617.392 856.31 616.949C856.884 616.5 857.509 616.187 858.185 616.011C858.866 615.83 859.537 615.739 860.196 615.739C860.616 615.739 861.099 615.79 861.645 615.892C862.196 615.989 862.727 616.19 863.239 616.497C863.756 616.804 864.185 617.267 864.526 617.886C864.866 618.506 865.037 619.335 865.037 620.375V629H863.026V627.227H862.923C862.787 627.511 862.56 627.815 862.241 628.139C861.923 628.463 861.5 628.739 860.972 628.966C860.443 629.193 859.798 629.307 859.037 629.307ZM859.344 627.5C860.139 627.5 860.81 627.344 861.355 627.031C861.906 626.719 862.321 626.315 862.599 625.821C862.884 625.327 863.026 624.807 863.026 624.261V622.42C862.94 622.523 862.753 622.616 862.463 622.702C862.179 622.781 861.849 622.852 861.474 622.915C861.105 622.972 860.744 623.023 860.392 623.068C860.045 623.108 859.764 623.142 859.548 623.17C859.026 623.239 858.537 623.349 858.082 623.503C857.634 623.651 857.27 623.875 856.991 624.176C856.719 624.472 856.582 624.875 856.582 625.386C856.582 626.085 856.841 626.614 857.358 626.972C857.881 627.324 858.543 627.5 859.344 627.5ZM868.708 629V615.909H870.719V629H868.708ZM869.731 613.727C869.339 613.727 869.001 613.594 868.717 613.327C868.438 613.06 868.299 612.739 868.299 612.364C868.299 611.989 868.438 611.668 868.717 611.401C869.001 611.134 869.339 611 869.731 611C870.123 611 870.458 611.134 870.737 611.401C871.021 611.668 871.163 611.989 871.163 612.364C871.163 612.739 871.021 613.06 870.737 613.327C870.458 613.594 870.123 613.727 869.731 613.727ZM876.415 621.125V629H874.403V615.909H876.347V617.955H876.517C876.824 617.29 877.29 616.756 877.915 616.352C878.54 615.943 879.347 615.739 880.335 615.739C881.222 615.739 881.997 615.92 882.662 616.284C883.327 616.642 883.844 617.188 884.213 617.92C884.582 618.648 884.767 619.568 884.767 620.682V629H882.756V620.818C882.756 619.79 882.489 618.989 881.955 618.415C881.42 617.835 880.688 617.545 879.756 617.545C879.114 617.545 878.54 617.685 878.034 617.963C877.534 618.241 877.139 618.648 876.849 619.182C876.56 619.716 876.415 620.364 876.415 621.125ZM895.465 629V611.545H901.363C902.732 611.545 903.852 611.793 904.721 612.287C905.596 612.776 906.244 613.438 906.664 614.273C907.085 615.108 907.295 616.04 907.295 617.068C907.295 618.097 907.085 619.031 906.664 619.872C906.249 620.713 905.607 621.384 904.738 621.884C903.869 622.378 902.755 622.625 901.397 622.625H897.17V620.75H901.329C902.266 620.75 903.019 620.588 903.587 620.264C904.156 619.94 904.567 619.503 904.823 618.952C905.085 618.395 905.215 617.767 905.215 617.068C905.215 616.369 905.085 615.744 904.823 615.193C904.567 614.642 904.153 614.21 903.579 613.898C903.005 613.58 902.244 613.42 901.295 613.42H897.579V629H895.465ZM914.279 629.307C913.45 629.307 912.697 629.151 912.021 628.838C911.344 628.52 910.808 628.062 910.41 627.466C910.012 626.864 909.813 626.136 909.813 625.284C909.813 624.534 909.961 623.926 910.256 623.46C910.552 622.989 910.947 622.619 911.441 622.352C911.935 622.085 912.481 621.886 913.077 621.756C913.68 621.619 914.285 621.511 914.893 621.432C915.688 621.33 916.333 621.253 916.827 621.202C917.327 621.145 917.691 621.051 917.918 620.92C918.151 620.79 918.268 620.562 918.268 620.239V620.17C918.268 619.33 918.038 618.676 917.577 618.21C917.123 617.744 916.433 617.511 915.506 617.511C914.546 617.511 913.793 617.722 913.248 618.142C912.702 618.562 912.319 619.011 912.097 619.489L910.188 618.807C910.529 618.011 910.984 617.392 911.552 616.949C912.126 616.5 912.751 616.187 913.427 616.011C914.109 615.83 914.779 615.739 915.438 615.739C915.859 615.739 916.342 615.79 916.887 615.892C917.438 615.989 917.969 616.19 918.481 616.497C918.998 616.804 919.427 617.267 919.768 617.886C920.109 618.506 920.279 619.335 920.279 620.375V629H918.268V627.227H918.165C918.029 627.511 917.802 627.815 917.484 628.139C917.165 628.463 916.742 628.739 916.214 628.966C915.685 629.193 915.04 629.307 914.279 629.307ZM914.586 627.5C915.381 627.5 916.052 627.344 916.597 627.031C917.148 626.719 917.563 626.315 917.842 625.821C918.126 625.327 918.268 624.807 918.268 624.261V622.42C918.183 622.523 917.995 622.616 917.705 622.702C917.421 622.781 917.092 622.852 916.717 622.915C916.347 622.972 915.987 623.023 915.634 623.068C915.288 623.108 915.006 623.142 914.79 623.17C914.268 623.239 913.779 623.349 913.325 623.503C912.876 623.651 912.512 623.875 912.234 624.176C911.961 624.472 911.825 624.875 911.825 625.386C911.825 626.085 912.083 626.614 912.6 626.972C913.123 627.324 913.785 627.5 914.586 627.5ZM929.234 634.182C928.263 634.182 927.428 634.057 926.729 633.807C926.03 633.562 925.447 633.239 924.982 632.835C924.521 632.438 924.155 632.011 923.882 631.557L925.484 630.432C925.666 630.67 925.896 630.943 926.175 631.25C926.453 631.562 926.834 631.832 927.317 632.06C927.805 632.293 928.445 632.409 929.234 632.409C930.291 632.409 931.163 632.153 931.851 631.642C932.538 631.131 932.882 630.33 932.882 629.239V626.58H932.712C932.564 626.818 932.354 627.114 932.081 627.466C931.814 627.812 931.428 628.122 930.922 628.395C930.422 628.662 929.746 628.795 928.893 628.795C927.837 628.795 926.888 628.545 926.047 628.045C925.212 627.545 924.55 626.818 924.061 625.864C923.578 624.909 923.337 623.75 923.337 622.386C923.337 621.045 923.572 619.878 924.044 618.884C924.516 617.884 925.172 617.111 926.013 616.565C926.854 616.014 927.825 615.739 928.928 615.739C929.78 615.739 930.456 615.881 930.956 616.165C931.462 616.443 931.848 616.761 932.115 617.119C932.388 617.472 932.598 617.761 932.746 617.989H932.95V615.909H934.893V629.375C934.893 630.5 934.638 631.415 934.126 632.119C933.621 632.83 932.939 633.349 932.081 633.679C931.229 634.014 930.28 634.182 929.234 634.182ZM929.166 626.989C929.973 626.989 930.655 626.804 931.212 626.435C931.768 626.065 932.192 625.534 932.482 624.841C932.771 624.148 932.916 623.318 932.916 622.352C932.916 621.409 932.774 620.577 932.49 619.855C932.206 619.134 931.786 618.568 931.229 618.159C930.672 617.75 929.984 617.545 929.166 617.545C928.314 617.545 927.604 617.761 927.036 618.193C926.473 618.625 926.05 619.205 925.766 619.932C925.487 620.659 925.348 621.466 925.348 622.352C925.348 623.261 925.49 624.065 925.774 624.764C926.064 625.457 926.49 626.003 927.053 626.401C927.621 626.793 928.325 626.989 929.166 626.989ZM944.064 629.273C942.803 629.273 941.714 628.994 940.8 628.438C939.891 627.875 939.189 627.091 938.695 626.085C938.206 625.074 937.962 623.898 937.962 622.557C937.962 621.216 938.206 620.034 938.695 619.011C939.189 617.983 939.876 617.182 940.757 616.608C941.643 616.028 942.678 615.739 943.859 615.739C944.541 615.739 945.214 615.852 945.879 616.08C946.544 616.307 947.149 616.676 947.695 617.188C948.24 617.693 948.675 618.364 948.999 619.199C949.322 620.034 949.484 621.062 949.484 622.284V623.136H939.393V621.398H947.439C947.439 620.659 947.291 620 946.996 619.42C946.706 618.841 946.291 618.384 945.751 618.048C945.217 617.713 944.587 617.545 943.859 617.545C943.058 617.545 942.365 617.744 941.78 618.142C941.2 618.534 940.754 619.045 940.442 619.676C940.129 620.307 939.973 620.983 939.973 621.705V622.864C939.973 623.852 940.143 624.69 940.484 625.378C940.831 626.06 941.311 626.58 941.925 626.938C942.538 627.29 943.251 627.466 944.064 627.466C944.592 627.466 945.07 627.392 945.496 627.244C945.928 627.091 946.3 626.864 946.612 626.562C946.925 626.256 947.166 625.875 947.337 625.42L949.28 625.966C949.075 626.625 948.732 627.205 948.249 627.705C947.766 628.199 947.169 628.585 946.459 628.864C945.749 629.136 944.95 629.273 944.064 629.273Z" fill="white"/>
</svg>
