<svg width="1440" height="1024" viewBox="0 0 1440 1024" fill="none" xmlns="http://www.w3.org/2000/svg">
<rect width="1440" height="1024" fill="white"/>
<path d="M477.568 124L468.023 89.0909H472.318L479.614 117.523H479.955L487.386 89.0909H492.159L499.591 117.523H499.932L507.227 89.0909H511.523L501.977 124H497.614L489.909 96.1818H489.636L481.932 124H477.568ZM666.56 100C666.185 98.8523 665.69 97.8239 665.077 96.9148C664.474 95.9943 663.753 95.2102 662.912 94.5625C662.082 93.9148 661.139 93.4205 660.082 93.0795C659.026 92.7386 657.866 92.5682 656.605 92.5682C654.537 92.5682 652.656 93.1023 650.963 94.1705C649.27 95.2386 647.923 96.8125 646.923 98.892C645.923 100.972 645.423 103.523 645.423 106.545C645.423 109.568 645.929 112.119 646.94 114.199C647.952 116.278 649.321 117.852 651.048 118.92C652.776 119.989 654.719 120.523 656.878 120.523C658.878 120.523 660.639 120.097 662.162 119.244C663.696 118.381 664.889 117.165 665.741 115.597C666.605 114.017 667.037 112.159 667.037 110.023L668.332 110.295H657.832V106.545H671.128V110.295C671.128 113.17 670.514 115.67 669.287 117.795C668.071 119.92 666.389 121.568 664.241 122.739C662.105 123.898 659.651 124.477 656.878 124.477C653.787 124.477 651.071 123.75 648.73 122.295C646.401 120.841 644.582 118.773 643.276 116.091C641.98 113.409 641.332 110.227 641.332 106.545C641.332 103.784 641.702 101.301 642.44 99.0966C643.19 96.8807 644.247 94.9943 645.611 93.4375C646.974 91.8807 648.588 90.6875 650.452 89.858C652.315 89.0284 654.366 88.6136 656.605 88.6136C658.446 88.6136 660.162 88.892 661.753 89.4489C663.355 89.9943 664.781 90.7727 666.031 91.7841C667.293 92.7841 668.344 93.983 669.185 95.3807C670.026 96.767 670.605 98.3068 670.923 100H666.56ZM856.953 134.364C855.01 134.364 853.339 134.114 851.942 133.614C850.544 133.125 849.379 132.477 848.447 131.67C847.527 130.875 846.794 130.023 846.249 129.114L849.453 126.864C849.817 127.341 850.277 127.886 850.834 128.5C851.391 129.125 852.152 129.665 853.118 130.119C854.095 130.585 855.374 130.818 856.953 130.818C859.067 130.818 860.811 130.307 862.186 129.284C863.561 128.261 864.249 126.659 864.249 124.477V119.159H863.908C863.612 119.636 863.192 120.227 862.646 120.932C862.112 121.625 861.339 122.244 860.328 122.79C859.328 123.324 857.976 123.591 856.271 123.591C854.158 123.591 852.26 123.091 850.578 122.091C848.908 121.091 847.584 119.636 846.607 117.727C845.641 115.818 845.158 113.5 845.158 110.773C845.158 108.091 845.629 105.756 846.572 103.767C847.516 101.767 848.828 100.222 850.51 99.1307C852.192 98.0284 854.135 97.4773 856.339 97.4773C858.044 97.4773 859.396 97.7614 860.396 98.3295C861.408 98.8864 862.18 99.5227 862.714 100.239C863.26 100.943 863.68 101.523 863.976 101.977H864.385V97.8182H868.271V124.75C868.271 127 867.76 128.83 866.737 130.239C865.726 131.659 864.362 132.699 862.646 133.358C860.942 134.028 859.044 134.364 856.953 134.364ZM856.817 119.977C858.43 119.977 859.794 119.608 860.908 118.869C862.021 118.131 862.868 117.068 863.447 115.682C864.027 114.295 864.317 112.636 864.317 110.705C864.317 108.818 864.033 107.153 863.464 105.71C862.896 104.267 862.055 103.136 860.942 102.318C859.828 101.5 858.453 101.091 856.817 101.091C855.112 101.091 853.692 101.523 852.555 102.386C851.43 103.25 850.584 104.409 850.016 105.864C849.459 107.318 849.18 108.932 849.18 110.705C849.18 112.523 849.464 114.131 850.033 115.528C850.612 116.915 851.464 118.006 852.589 118.801C853.726 119.585 855.135 119.977 856.817 119.977Z" fill="#6AAA64"/>
<path d="M524.443 124.545C522.08 124.545 520.006 123.983 518.222 122.858C516.449 121.733 515.062 120.159 514.062 118.136C513.074 116.114 512.58 113.75 512.58 111.045C512.58 108.318 513.074 105.937 514.062 103.903C515.062 101.869 516.449 100.29 518.222 99.1648C520.006 98.0398 522.08 97.4773 524.443 97.4773C526.807 97.4773 528.875 98.0398 530.648 99.1648C532.432 100.29 533.818 101.869 534.807 103.903C535.807 105.937 536.307 108.318 536.307 111.045C536.307 113.75 535.807 116.114 534.807 118.136C533.818 120.159 532.432 121.733 530.648 122.858C528.875 123.983 526.807 124.545 524.443 124.545ZM524.443 120.932C526.239 120.932 527.716 120.472 528.875 119.551C530.034 118.631 530.892 117.42 531.449 115.92C532.006 114.42 532.284 112.795 532.284 111.045C532.284 109.295 532.006 107.665 531.449 106.153C530.892 104.642 530.034 103.42 528.875 102.489C527.716 101.557 526.239 101.091 524.443 101.091C522.648 101.091 521.17 101.557 520.011 102.489C518.852 103.42 517.994 104.642 517.438 106.153C516.881 107.665 516.602 109.295 516.602 111.045C516.602 112.795 516.881 114.42 517.438 115.92C517.994 117.42 518.852 118.631 520.011 119.551C521.17 120.472 522.648 120.932 524.443 120.932ZM542.447 124V97.8182H546.334V101.773H546.607C547.084 100.477 547.947 99.4261 549.197 98.6193C550.447 97.8125 551.857 97.4091 553.425 97.4091C553.72 97.4091 554.089 97.4148 554.533 97.4261C554.976 97.4375 555.311 97.4545 555.538 97.4773V101.568C555.402 101.534 555.089 101.483 554.601 101.415C554.124 101.335 553.618 101.295 553.084 101.295C551.811 101.295 550.675 101.562 549.675 102.097C548.686 102.619 547.902 103.347 547.322 104.278C546.754 105.199 546.47 106.25 546.47 107.432V124H542.447ZM593.345 89.0909V124H589.322V89.0909H593.345ZM611.69 124.545C609.168 124.545 606.991 123.989 605.162 122.875C603.344 121.75 601.94 120.182 600.952 118.17C599.974 116.148 599.486 113.795 599.486 111.114C599.486 108.432 599.974 106.068 600.952 104.023C601.94 101.966 603.315 100.364 605.077 99.2159C606.849 98.0568 608.918 97.4773 611.281 97.4773C612.645 97.4773 613.991 97.7045 615.321 98.1591C616.651 98.6136 617.861 99.3523 618.952 100.375C620.043 101.386 620.912 102.727 621.56 104.398C622.207 106.068 622.531 108.125 622.531 110.568V112.273H602.349V108.795H618.44C618.44 107.318 618.145 106 617.554 104.841C616.974 103.682 616.145 102.767 615.065 102.097C613.997 101.426 612.736 101.091 611.281 101.091C609.679 101.091 608.293 101.489 607.122 102.284C605.963 103.068 605.071 104.091 604.446 105.352C603.821 106.614 603.509 107.966 603.509 109.409V111.727C603.509 113.705 603.849 115.381 604.531 116.756C605.224 118.119 606.185 119.159 607.412 119.875C608.639 120.58 610.065 120.932 611.69 120.932C612.747 120.932 613.702 120.784 614.554 120.489C615.418 120.182 616.162 119.727 616.787 119.125C617.412 118.511 617.895 117.75 618.236 116.841L622.122 117.932C621.713 119.25 621.026 120.409 620.06 121.409C619.094 122.398 617.901 123.17 616.48 123.727C615.06 124.273 613.463 124.545 611.69 124.545ZM704.869 124V97.8182H708.756V101.909H709.097C709.642 100.511 710.523 99.4261 711.739 98.6534C712.955 97.8693 714.415 97.4773 716.119 97.4773C717.847 97.4773 719.284 97.8693 720.432 98.6534C721.591 99.4261 722.494 100.511 723.142 101.909H723.415C724.085 100.557 725.091 99.483 726.432 98.6875C727.773 97.8807 729.381 97.4773 731.256 97.4773C733.597 97.4773 735.511 98.2102 737 99.6761C738.489 101.131 739.233 103.398 739.233 106.477V124H735.21V106.477C735.21 104.545 734.682 103.165 733.625 102.335C732.568 101.506 731.324 101.091 729.892 101.091C728.051 101.091 726.625 101.648 725.614 102.761C724.602 103.864 724.097 105.261 724.097 106.955V124H720.006V106.068C720.006 104.58 719.523 103.381 718.557 102.472C717.591 101.551 716.347 101.091 714.824 101.091C713.778 101.091 712.801 101.369 711.892 101.926C710.994 102.483 710.267 103.256 709.71 104.244C709.165 105.222 708.892 106.352 708.892 107.636V124H704.869ZM757.565 124.545C755.043 124.545 752.866 123.989 751.037 122.875C749.219 121.75 747.815 120.182 746.827 118.17C745.849 116.148 745.361 113.795 745.361 111.114C745.361 108.432 745.849 106.068 746.827 104.023C747.815 101.966 749.19 100.364 750.952 99.2159C752.724 98.0568 754.793 97.4773 757.156 97.4773C758.52 97.4773 759.866 97.7045 761.196 98.1591C762.526 98.6136 763.736 99.3523 764.827 100.375C765.918 101.386 766.787 102.727 767.435 104.398C768.082 106.068 768.406 108.125 768.406 110.568V112.273H748.224V108.795H764.315C764.315 107.318 764.02 106 763.429 104.841C762.849 103.682 762.02 102.767 760.94 102.097C759.872 101.426 758.611 101.091 757.156 101.091C755.554 101.091 754.168 101.489 752.997 102.284C751.838 103.068 750.946 104.091 750.321 105.352C749.696 106.614 749.384 107.966 749.384 109.409V111.727C749.384 113.705 749.724 115.381 750.406 116.756C751.099 118.119 752.06 119.159 753.287 119.875C754.514 120.58 755.94 120.932 757.565 120.932C758.622 120.932 759.577 120.784 760.429 120.489C761.293 120.182 762.037 119.727 762.662 119.125C763.287 118.511 763.77 117.75 764.111 116.841L767.997 117.932C767.588 119.25 766.901 120.409 765.935 121.409C764.969 122.398 763.776 123.17 762.355 123.727C760.935 124.273 759.338 124.545 757.565 124.545ZM788.571 124V89.0909H800.366C803.094 89.0909 805.332 89.5568 807.082 90.4886C808.832 91.4091 810.128 92.6761 810.969 94.2898C811.81 95.9034 812.23 97.7386 812.23 99.7955C812.23 101.852 811.81 103.676 810.969 105.267C810.128 106.858 808.838 108.108 807.099 109.017C805.361 109.915 803.139 110.364 800.435 110.364H790.889V106.545H800.298C802.162 106.545 803.662 106.273 804.798 105.727C805.946 105.182 806.776 104.409 807.287 103.409C807.81 102.398 808.071 101.193 808.071 99.7955C808.071 98.3977 807.81 97.1761 807.287 96.1307C806.764 95.0852 805.929 94.2784 804.781 93.7102C803.634 93.1307 802.116 92.8409 800.23 92.8409H792.798V124H788.571ZM805.003 108.318L813.594 124H808.685L800.23 108.318H805.003ZM829.425 124.545C826.902 124.545 824.726 123.989 822.896 122.875C821.078 121.75 819.675 120.182 818.686 118.17C817.709 116.148 817.22 113.795 817.22 111.114C817.22 108.432 817.709 106.068 818.686 104.023C819.675 101.966 821.05 100.364 822.811 99.2159C824.584 98.0568 826.652 97.4773 829.016 97.4773C830.379 97.4773 831.726 97.7045 833.055 98.1591C834.385 98.6136 835.595 99.3523 836.686 100.375C837.777 101.386 838.646 102.727 839.294 104.398C839.942 106.068 840.266 108.125 840.266 110.568V112.273H820.084V108.795H836.175C836.175 107.318 835.879 106 835.288 104.841C834.709 103.682 833.879 102.767 832.8 102.097C831.732 101.426 830.47 101.091 829.016 101.091C827.413 101.091 826.027 101.489 824.857 102.284C823.697 103.068 822.805 104.091 822.18 105.352C821.555 106.614 821.243 107.966 821.243 109.409V111.727C821.243 113.705 821.584 115.381 822.266 116.756C822.959 118.119 823.919 119.159 825.146 119.875C826.374 120.58 827.8 120.932 829.425 120.932C830.482 120.932 831.436 120.784 832.288 120.489C833.152 120.182 833.896 119.727 834.521 119.125C835.146 118.511 835.629 117.75 835.97 116.841L839.857 117.932C839.447 119.25 838.76 120.409 837.794 121.409C836.828 122.398 835.635 123.17 834.214 123.727C832.794 124.273 831.197 124.545 829.425 124.545ZM875.635 124V97.8182H879.658V124H875.635ZM877.68 93.4545C876.896 93.4545 876.22 93.1875 875.652 92.6534C875.095 92.1193 874.817 91.4773 874.817 90.7273C874.817 89.9773 875.095 89.3352 875.652 88.8011C876.22 88.267 876.896 88 877.68 88C878.464 88 879.135 88.267 879.692 88.8011C880.26 89.3352 880.544 89.9773 880.544 90.7273C880.544 91.4773 880.26 92.1193 879.692 92.6534C879.135 93.1875 878.464 93.4545 877.68 93.4545ZM905.571 103.682L901.957 104.705C901.73 104.102 901.395 103.517 900.952 102.949C900.52 102.369 899.929 101.892 899.179 101.517C898.429 101.142 897.469 100.955 896.298 100.955C894.696 100.955 893.361 101.324 892.293 102.062C891.236 102.79 890.707 103.716 890.707 104.841C890.707 105.841 891.071 106.631 891.798 107.21C892.526 107.79 893.662 108.273 895.207 108.659L899.094 109.614C901.435 110.182 903.179 111.051 904.327 112.222C905.474 113.381 906.048 114.875 906.048 116.705C906.048 118.205 905.616 119.545 904.753 120.727C903.901 121.909 902.707 122.841 901.173 123.523C899.639 124.205 897.855 124.545 895.821 124.545C893.151 124.545 890.94 123.966 889.19 122.807C887.44 121.648 886.332 119.955 885.866 117.727L889.685 116.773C890.048 118.182 890.736 119.239 891.747 119.943C892.77 120.648 894.105 121 895.753 121C897.628 121 899.116 120.602 900.219 119.807C901.332 119 901.889 118.034 901.889 116.909C901.889 116 901.571 115.239 900.935 114.625C900.298 114 899.321 113.534 898.003 113.227L893.639 112.205C891.241 111.636 889.48 110.756 888.355 109.562C887.241 108.358 886.685 106.852 886.685 105.045C886.685 103.568 887.099 102.261 887.929 101.125C888.77 99.9886 889.912 99.0966 891.355 98.4489C892.81 97.8011 894.457 97.4773 896.298 97.4773C898.889 97.4773 900.923 98.0455 902.401 99.1818C903.889 100.318 904.946 101.818 905.571 103.682ZM940.237 124.545C937.714 124.545 935.538 123.989 933.709 122.875C931.891 121.75 930.487 120.182 929.499 118.17C928.521 116.148 928.033 113.795 928.033 111.114C928.033 108.432 928.521 106.068 929.499 104.023C930.487 101.966 931.862 100.364 933.624 99.2159C935.396 98.0568 937.464 97.4773 939.828 97.4773C941.192 97.4773 942.538 97.7045 943.868 98.1591C945.197 98.6136 946.408 99.3523 947.499 100.375C948.589 101.386 949.459 102.727 950.107 104.398C950.754 106.068 951.078 108.125 951.078 110.568V112.273H930.896V108.795H946.987C946.987 107.318 946.692 106 946.101 104.841C945.521 103.682 944.692 102.767 943.612 102.097C942.544 101.426 941.283 101.091 939.828 101.091C938.226 101.091 936.839 101.489 935.669 102.284C934.51 103.068 933.618 104.091 932.993 105.352C932.368 106.614 932.055 107.966 932.055 109.409V111.727C932.055 113.705 932.396 115.381 933.078 116.756C933.771 118.119 934.732 119.159 935.959 119.875C937.186 120.58 938.612 120.932 940.237 120.932C941.294 120.932 942.249 120.784 943.101 120.489C943.964 120.182 944.709 119.727 945.334 119.125C945.959 118.511 946.442 117.75 946.783 116.841L950.669 117.932C950.26 119.25 949.572 120.409 948.607 121.409C947.641 122.398 946.447 123.17 945.027 123.727C943.607 124.273 942.01 124.545 940.237 124.545ZM957.197 124V97.8182H961.084V101.773H961.357C961.834 100.477 962.697 99.4261 963.947 98.6193C965.197 97.8125 966.607 97.4091 968.175 97.4091C968.47 97.4091 968.839 97.4148 969.283 97.4261C969.726 97.4375 970.061 97.4545 970.288 97.4773V101.568C970.152 101.534 969.839 101.483 969.351 101.415C968.874 101.335 968.368 101.295 967.834 101.295C966.561 101.295 965.425 101.562 964.425 102.097C963.436 102.619 962.652 103.347 962.072 104.278C961.504 105.199 961.22 106.25 961.22 107.432V124H957.197Z" fill="black"/>
<path d="M569.396 124.545C567.214 124.545 565.288 123.994 563.618 122.892C561.947 121.778 560.641 120.21 559.697 118.188C558.754 116.153 558.283 113.75 558.283 110.977C558.283 108.227 558.754 105.841 559.697 103.818C560.641 101.795 561.953 100.233 563.635 99.1307C565.317 98.0284 567.26 97.4773 569.464 97.4773C571.169 97.4773 572.516 97.7614 573.504 98.3295C574.504 98.8864 575.266 99.5227 575.788 100.239C576.322 100.943 576.737 101.523 577.033 101.977H577.374V89.0909H581.396V124H577.51V119.977H577.033C576.737 120.455 576.317 121.057 575.771 121.784C575.226 122.5 574.447 123.142 573.436 123.71C572.425 124.267 571.078 124.545 569.396 124.545ZM569.942 120.932C571.555 120.932 572.919 120.511 574.033 119.67C575.146 118.818 575.993 117.642 576.572 116.142C577.152 114.631 577.442 112.886 577.442 110.909C577.442 108.955 577.158 107.244 576.589 105.778C576.021 104.301 575.18 103.153 574.067 102.335C572.953 101.506 571.578 101.091 569.942 101.091C568.237 101.091 566.817 101.528 565.68 102.403C564.555 103.267 563.709 104.443 563.141 105.932C562.584 107.409 562.305 109.068 562.305 110.909C562.305 112.773 562.589 114.466 563.158 115.989C563.737 117.5 564.589 118.705 565.714 119.602C566.851 120.489 568.26 120.932 569.942 120.932ZM685.527 124.614C683.868 124.614 682.362 124.301 681.01 123.676C679.658 123.04 678.584 122.125 677.788 120.932C676.993 119.727 676.595 118.273 676.595 116.568C676.595 115.068 676.891 113.852 677.482 112.92C678.072 111.977 678.862 111.239 679.851 110.705C680.839 110.17 681.93 109.773 683.124 109.511C684.328 109.239 685.538 109.023 686.754 108.864C688.345 108.659 689.635 108.506 690.624 108.403C691.624 108.29 692.351 108.102 692.805 107.841C693.271 107.58 693.504 107.125 693.504 106.477V106.341C693.504 104.659 693.044 103.352 692.124 102.42C691.214 101.489 689.834 101.023 687.982 101.023C686.061 101.023 684.555 101.443 683.464 102.284C682.374 103.125 681.607 104.023 681.163 104.977L677.345 103.614C678.027 102.023 678.936 100.784 680.072 99.8977C681.22 99 682.47 98.375 683.822 98.0227C685.186 97.6591 686.527 97.4773 687.845 97.4773C688.686 97.4773 689.652 97.5795 690.743 97.7841C691.845 97.9773 692.908 98.3807 693.93 98.9943C694.964 99.608 695.822 100.534 696.504 101.773C697.186 103.011 697.527 104.67 697.527 106.75V124H693.504V120.455H693.3C693.027 121.023 692.572 121.631 691.936 122.278C691.3 122.926 690.453 123.477 689.396 123.932C688.339 124.386 687.05 124.614 685.527 124.614ZM686.141 121C687.732 121 689.072 120.688 690.163 120.062C691.266 119.438 692.095 118.631 692.652 117.642C693.22 116.653 693.504 115.614 693.504 114.523V110.841C693.334 111.045 692.959 111.233 692.379 111.403C691.811 111.562 691.152 111.705 690.402 111.83C689.663 111.943 688.942 112.045 688.237 112.136C687.544 112.216 686.982 112.284 686.55 112.341C685.504 112.477 684.527 112.699 683.618 113.006C682.72 113.301 681.993 113.75 681.436 114.352C680.891 114.943 680.618 115.75 680.618 116.773C680.618 118.17 681.135 119.227 682.169 119.943C683.214 120.648 684.538 121 686.141 121ZM923.49 97.8182V101.227H909.922V97.8182H923.49ZM913.876 91.5455H917.899V116.5C917.899 117.636 918.064 118.489 918.393 119.057C918.734 119.614 919.166 119.989 919.689 120.182C920.223 120.364 920.786 120.455 921.376 120.455C921.82 120.455 922.183 120.432 922.467 120.386C922.751 120.33 922.979 120.284 923.149 120.25L923.967 123.864C923.695 123.966 923.314 124.068 922.825 124.17C922.337 124.284 921.717 124.341 920.967 124.341C919.831 124.341 918.717 124.097 917.626 123.608C916.547 123.119 915.649 122.375 914.933 121.375C914.229 120.375 913.876 119.114 913.876 117.591V91.5455Z" fill="#D1B036"/>
<path d="M482.955 184.545V202H480.909L471.398 188.295H471.227V202H469.114V184.545H471.159L480.705 198.284H480.875V184.545H482.955ZM490.763 202.307C489.934 202.307 489.181 202.151 488.505 201.838C487.829 201.52 487.292 201.062 486.894 200.466C486.496 199.864 486.298 199.136 486.298 198.284C486.298 197.534 486.445 196.926 486.741 196.46C487.036 195.989 487.431 195.619 487.925 195.352C488.42 195.085 488.965 194.886 489.562 194.756C490.164 194.619 490.769 194.511 491.377 194.432C492.173 194.33 492.817 194.253 493.312 194.202C493.812 194.145 494.175 194.051 494.403 193.92C494.636 193.79 494.752 193.562 494.752 193.239V193.17C494.752 192.33 494.522 191.676 494.062 191.21C493.607 190.744 492.917 190.511 491.991 190.511C491.031 190.511 490.278 190.722 489.732 191.142C489.187 191.562 488.803 192.011 488.582 192.489L486.673 191.807C487.013 191.011 487.468 190.392 488.036 189.949C488.61 189.5 489.235 189.187 489.911 189.011C490.593 188.83 491.263 188.739 491.923 188.739C492.343 188.739 492.826 188.79 493.371 188.892C493.923 188.989 494.454 189.19 494.965 189.497C495.482 189.804 495.911 190.267 496.252 190.886C496.593 191.506 496.763 192.335 496.763 193.375V202H494.752V200.227H494.65C494.513 200.511 494.286 200.815 493.968 201.139C493.65 201.463 493.227 201.739 492.698 201.966C492.17 202.193 491.525 202.307 490.763 202.307ZM491.07 200.5C491.866 200.5 492.536 200.344 493.082 200.031C493.633 199.719 494.048 199.315 494.326 198.821C494.61 198.327 494.752 197.807 494.752 197.261V195.42C494.667 195.523 494.479 195.616 494.19 195.702C493.906 195.781 493.576 195.852 493.201 195.915C492.832 195.972 492.471 196.023 492.119 196.068C491.772 196.108 491.491 196.142 491.275 196.17C490.752 196.239 490.263 196.349 489.809 196.503C489.36 196.651 488.996 196.875 488.718 197.176C488.445 197.472 488.309 197.875 488.309 198.386C488.309 199.085 488.567 199.614 489.085 199.972C489.607 200.324 490.269 200.5 491.07 200.5ZM500.435 202V188.909H502.378V190.955H502.548C502.821 190.256 503.261 189.713 503.869 189.327C504.477 188.935 505.207 188.739 506.06 188.739C506.923 188.739 507.642 188.935 508.216 189.327C508.795 189.713 509.247 190.256 509.571 190.955H509.707C510.043 190.278 510.545 189.741 511.216 189.344C511.886 188.94 512.69 188.739 513.628 188.739C514.798 188.739 515.756 189.105 516.5 189.838C517.244 190.565 517.616 191.699 517.616 193.239V202H515.605V193.239C515.605 192.273 515.341 191.582 514.812 191.168C514.284 190.753 513.662 190.545 512.946 190.545C512.026 190.545 511.313 190.824 510.807 191.381C510.301 191.932 510.048 192.631 510.048 193.477V202H508.003V193.034C508.003 192.29 507.761 191.69 507.278 191.236C506.795 190.776 506.173 190.545 505.412 190.545C504.889 190.545 504.401 190.685 503.946 190.963C503.497 191.241 503.134 191.628 502.855 192.122C502.582 192.611 502.446 193.176 502.446 193.818V202H500.435ZM526.783 202.273C525.521 202.273 524.433 201.994 523.518 201.438C522.609 200.875 521.908 200.091 521.413 199.085C520.925 198.074 520.68 196.898 520.68 195.557C520.68 194.216 520.925 193.034 521.413 192.011C521.908 190.983 522.595 190.182 523.476 189.608C524.362 189.028 525.396 188.739 526.578 188.739C527.26 188.739 527.933 188.852 528.598 189.08C529.263 189.307 529.868 189.676 530.413 190.188C530.959 190.693 531.393 191.364 531.717 192.199C532.041 193.034 532.203 194.062 532.203 195.284V196.136H522.112V194.398H530.158C530.158 193.659 530.01 193 529.714 192.42C529.425 191.841 529.01 191.384 528.47 191.048C527.936 190.713 527.305 190.545 526.578 190.545C525.777 190.545 525.084 190.744 524.499 191.142C523.919 191.534 523.473 192.045 523.161 192.676C522.848 193.307 522.692 193.983 522.692 194.705V195.864C522.692 196.852 522.862 197.69 523.203 198.378C523.55 199.06 524.03 199.58 524.643 199.938C525.257 200.29 525.97 200.466 526.783 200.466C527.311 200.466 527.788 200.392 528.214 200.244C528.646 200.091 529.018 199.864 529.331 199.562C529.643 199.256 529.885 198.875 530.055 198.42L531.999 198.966C531.794 199.625 531.45 200.205 530.967 200.705C530.484 201.199 529.888 201.585 529.178 201.864C528.467 202.136 527.669 202.273 526.783 202.273Z" fill="black"/>
<rect x="468" y="217" width="503" height="47" rx="9" fill="white" stroke="black" stroke-width="2"/>
<path d="M478.659 292.909C478.557 292.045 478.142 291.375 477.415 290.898C476.688 290.42 475.795 290.182 474.739 290.182C473.966 290.182 473.29 290.307 472.71 290.557C472.136 290.807 471.688 291.151 471.364 291.588C471.045 292.026 470.886 292.523 470.886 293.08C470.886 293.545 470.997 293.946 471.219 294.281C471.446 294.611 471.736 294.886 472.088 295.108C472.44 295.324 472.81 295.503 473.196 295.645C473.582 295.781 473.938 295.892 474.261 295.977L476.034 296.455C476.489 296.574 476.994 296.739 477.551 296.949C478.114 297.159 478.651 297.446 479.162 297.81C479.679 298.168 480.105 298.628 480.44 299.19C480.776 299.753 480.943 300.443 480.943 301.261C480.943 302.205 480.696 303.057 480.202 303.818C479.713 304.58 478.997 305.185 478.054 305.634C477.116 306.082 475.977 306.307 474.636 306.307C473.386 306.307 472.304 306.105 471.389 305.702C470.48 305.298 469.764 304.736 469.241 304.014C468.724 303.293 468.432 302.455 468.364 301.5H470.545C470.602 302.159 470.824 302.705 471.21 303.136C471.602 303.562 472.097 303.881 472.693 304.091C473.295 304.295 473.943 304.398 474.636 304.398C475.443 304.398 476.168 304.267 476.81 304.006C477.452 303.739 477.96 303.369 478.335 302.898C478.71 302.42 478.898 301.864 478.898 301.227C478.898 300.648 478.736 300.176 478.412 299.812C478.088 299.449 477.662 299.153 477.134 298.926C476.605 298.699 476.034 298.5 475.42 298.33L473.273 297.716C471.909 297.324 470.83 296.764 470.034 296.037C469.239 295.31 468.841 294.358 468.841 293.182C468.841 292.205 469.105 291.352 469.634 290.625C470.168 289.892 470.884 289.324 471.781 288.92C472.685 288.511 473.693 288.307 474.807 288.307C475.932 288.307 476.932 288.509 477.807 288.912C478.682 289.31 479.375 289.855 479.886 290.548C480.403 291.241 480.676 292.028 480.705 292.909H478.659ZM492.396 300.648V292.909H494.407V306H492.396V303.784H492.259C491.952 304.449 491.475 305.014 490.827 305.48C490.18 305.94 489.362 306.17 488.373 306.17C487.555 306.17 486.827 305.991 486.191 305.634C485.555 305.27 485.055 304.724 484.691 303.997C484.327 303.264 484.146 302.341 484.146 301.227V292.909H486.157V301.091C486.157 302.045 486.424 302.807 486.958 303.375C487.498 303.943 488.185 304.227 489.021 304.227C489.521 304.227 490.029 304.099 490.546 303.844C491.069 303.588 491.506 303.196 491.859 302.668C492.217 302.139 492.396 301.466 492.396 300.648ZM498.091 306V292.909H500.034V294.886H500.17C500.409 294.239 500.841 293.713 501.466 293.31C502.091 292.906 502.795 292.705 503.58 292.705C503.727 292.705 503.912 292.707 504.134 292.713C504.355 292.719 504.523 292.727 504.636 292.739V294.784C504.568 294.767 504.412 294.741 504.168 294.707C503.929 294.668 503.676 294.648 503.409 294.648C502.773 294.648 502.205 294.781 501.705 295.048C501.21 295.31 500.818 295.673 500.528 296.139C500.244 296.599 500.102 297.125 500.102 297.716V306H498.091ZM509.032 298.125V306H507.021V292.909H508.964V294.955H509.134C509.441 294.29 509.907 293.756 510.532 293.352C511.157 292.943 511.964 292.739 512.952 292.739C513.839 292.739 514.614 292.92 515.279 293.284C515.944 293.642 516.461 294.188 516.83 294.92C517.2 295.648 517.384 296.568 517.384 297.682V306H515.373V297.818C515.373 296.79 515.106 295.989 514.572 295.415C514.038 294.835 513.305 294.545 512.373 294.545C511.731 294.545 511.157 294.685 510.651 294.963C510.151 295.241 509.756 295.648 509.467 296.182C509.177 296.716 509.032 297.364 509.032 298.125ZM524.912 306.307C524.082 306.307 523.33 306.151 522.653 305.838C521.977 305.52 521.44 305.062 521.043 304.466C520.645 303.864 520.446 303.136 520.446 302.284C520.446 301.534 520.594 300.926 520.889 300.46C521.185 299.989 521.58 299.619 522.074 299.352C522.568 299.085 523.114 298.886 523.71 298.756C524.313 298.619 524.918 298.511 525.526 298.432C526.321 298.33 526.966 298.253 527.46 298.202C527.96 298.145 528.324 298.051 528.551 297.92C528.784 297.79 528.901 297.562 528.901 297.239V297.17C528.901 296.33 528.67 295.676 528.21 295.21C527.756 294.744 527.065 294.511 526.139 294.511C525.179 294.511 524.426 294.722 523.881 295.142C523.335 295.562 522.952 296.011 522.73 296.489L520.821 295.807C521.162 295.011 521.616 294.392 522.185 293.949C522.759 293.5 523.384 293.187 524.06 293.011C524.741 292.83 525.412 292.739 526.071 292.739C526.491 292.739 526.974 292.79 527.52 292.892C528.071 292.989 528.602 293.19 529.114 293.497C529.631 293.804 530.06 294.267 530.401 294.886C530.741 295.506 530.912 296.335 530.912 297.375V306H528.901V304.227H528.798C528.662 304.511 528.435 304.815 528.116 305.139C527.798 305.463 527.375 305.739 526.847 305.966C526.318 306.193 525.673 306.307 524.912 306.307ZM525.219 304.5C526.014 304.5 526.685 304.344 527.23 304.031C527.781 303.719 528.196 303.315 528.474 302.821C528.759 302.327 528.901 301.807 528.901 301.261V299.42C528.815 299.523 528.628 299.616 528.338 299.702C528.054 299.781 527.724 299.852 527.349 299.915C526.98 299.972 526.619 300.023 526.267 300.068C525.92 300.108 525.639 300.142 525.423 300.17C524.901 300.239 524.412 300.349 523.957 300.503C523.509 300.651 523.145 300.875 522.866 301.176C522.594 301.472 522.457 301.875 522.457 302.386C522.457 303.085 522.716 303.614 523.233 303.972C523.756 304.324 524.418 304.5 525.219 304.5ZM534.583 306V292.909H536.526V294.955H536.697C536.969 294.256 537.41 293.713 538.018 293.327C538.626 292.935 539.356 292.739 540.208 292.739C541.072 292.739 541.79 292.935 542.364 293.327C542.944 293.713 543.396 294.256 543.719 294.955H543.856C544.191 294.278 544.694 293.741 545.364 293.344C546.035 292.94 546.839 292.739 547.776 292.739C548.947 292.739 549.904 293.105 550.648 293.838C551.393 294.565 551.765 295.699 551.765 297.239V306H549.754V297.239C549.754 296.273 549.489 295.582 548.961 295.168C548.433 294.753 547.81 294.545 547.094 294.545C546.174 294.545 545.461 294.824 544.955 295.381C544.45 295.932 544.197 296.631 544.197 297.477V306H542.151V297.034C542.151 296.29 541.91 295.69 541.427 295.236C540.944 294.776 540.322 294.545 539.56 294.545C539.038 294.545 538.549 294.685 538.094 294.963C537.646 295.241 537.282 295.628 537.004 296.122C536.731 296.611 536.594 297.176 536.594 297.818V306H534.583ZM560.931 306.273C559.67 306.273 558.582 305.994 557.667 305.438C556.758 304.875 556.056 304.091 555.562 303.085C555.073 302.074 554.829 300.898 554.829 299.557C554.829 298.216 555.073 297.034 555.562 296.011C556.056 294.983 556.744 294.182 557.624 293.608C558.511 293.028 559.545 292.739 560.727 292.739C561.408 292.739 562.082 292.852 562.746 293.08C563.411 293.307 564.016 293.676 564.562 294.188C565.107 294.693 565.542 295.364 565.866 296.199C566.19 297.034 566.352 298.062 566.352 299.284V300.136H556.261V298.398H564.306C564.306 297.659 564.158 297 563.863 296.42C563.573 295.841 563.158 295.384 562.619 295.048C562.085 294.713 561.454 294.545 560.727 294.545C559.925 294.545 559.232 294.744 558.647 295.142C558.067 295.534 557.621 296.045 557.309 296.676C556.996 297.307 556.84 297.983 556.84 298.705V299.864C556.84 300.852 557.011 301.69 557.352 302.378C557.698 303.06 558.178 303.58 558.792 303.938C559.406 304.29 560.119 304.466 560.931 304.466C561.46 304.466 561.937 304.392 562.363 304.244C562.795 304.091 563.167 303.864 563.479 303.562C563.792 303.256 564.033 302.875 564.204 302.42L566.147 302.966C565.942 303.625 565.599 304.205 565.116 304.705C564.633 305.199 564.036 305.585 563.326 305.864C562.616 306.136 561.817 306.273 560.931 306.273Z" fill="black"/>
<rect x="468" y="321" width="503" height="47" rx="9" fill="white" stroke="black" stroke-width="2"/>
<path d="M469.114 410V392.545H479.648V394.42H471.227V400.318H479.102V402.193H471.227V408.125H479.784V410H469.114ZM483.185 410V396.909H485.128V398.955H485.298C485.571 398.256 486.011 397.713 486.619 397.327C487.227 396.935 487.957 396.739 488.81 396.739C489.673 396.739 490.392 396.935 490.966 397.327C491.545 397.713 491.997 398.256 492.321 398.955H492.457C492.793 398.278 493.295 397.741 493.966 397.344C494.636 396.94 495.44 396.739 496.378 396.739C497.548 396.739 498.506 397.105 499.25 397.838C499.994 398.565 500.366 399.699 500.366 401.239V410H498.355V401.239C498.355 400.273 498.091 399.582 497.562 399.168C497.034 398.753 496.412 398.545 495.696 398.545C494.776 398.545 494.063 398.824 493.557 399.381C493.051 399.932 492.798 400.631 492.798 401.477V410H490.753V401.034C490.753 400.29 490.511 399.69 490.028 399.236C489.545 398.776 488.923 398.545 488.162 398.545C487.639 398.545 487.151 398.685 486.696 398.963C486.247 399.241 485.884 399.628 485.605 400.122C485.332 400.611 485.196 401.176 485.196 401.818V410H483.185ZM507.896 410.307C507.067 410.307 506.314 410.151 505.638 409.838C504.962 409.52 504.425 409.062 504.027 408.466C503.629 407.864 503.43 407.136 503.43 406.284C503.43 405.534 503.578 404.926 503.874 404.46C504.169 403.989 504.564 403.619 505.058 403.352C505.553 403.085 506.098 402.886 506.695 402.756C507.297 402.619 507.902 402.511 508.51 402.432C509.305 402.33 509.95 402.253 510.445 402.202C510.945 402.145 511.308 402.051 511.536 401.92C511.768 401.79 511.885 401.562 511.885 401.239V401.17C511.885 400.33 511.655 399.676 511.195 399.21C510.74 398.744 510.05 398.511 509.124 398.511C508.163 398.511 507.411 398.722 506.865 399.142C506.32 399.562 505.936 400.011 505.714 400.489L503.805 399.807C504.146 399.011 504.601 398.392 505.169 397.949C505.743 397.5 506.368 397.187 507.044 397.011C507.726 396.83 508.396 396.739 509.055 396.739C509.476 396.739 509.959 396.79 510.504 396.892C511.055 396.989 511.587 397.19 512.098 397.497C512.615 397.804 513.044 398.267 513.385 398.886C513.726 399.506 513.896 400.335 513.896 401.375V410H511.885V408.227H511.783C511.646 408.511 511.419 408.815 511.101 409.139C510.783 409.463 510.359 409.739 509.831 409.966C509.303 410.193 508.658 410.307 507.896 410.307ZM508.203 408.5C508.999 408.5 509.669 408.344 510.214 408.031C510.766 407.719 511.18 407.315 511.459 406.821C511.743 406.327 511.885 405.807 511.885 405.261V403.42C511.8 403.523 511.612 403.616 511.322 403.702C511.038 403.781 510.709 403.852 510.334 403.915C509.964 403.972 509.604 404.023 509.251 404.068C508.905 404.108 508.624 404.142 508.408 404.17C507.885 404.239 507.396 404.349 506.942 404.503C506.493 404.651 506.129 404.875 505.851 405.176C505.578 405.472 505.442 405.875 505.442 406.386C505.442 407.085 505.7 407.614 506.217 407.972C506.74 408.324 507.402 408.5 508.203 408.5ZM517.567 410V396.909H519.579V410H517.567ZM518.59 394.727C518.198 394.727 517.86 394.594 517.576 394.327C517.298 394.06 517.158 393.739 517.158 393.364C517.158 392.989 517.298 392.668 517.576 392.401C517.86 392.134 518.198 392 518.59 392C518.982 392 519.317 392.134 519.596 392.401C519.88 392.668 520.022 392.989 520.022 393.364C520.022 393.739 519.88 394.06 519.596 394.327C519.317 394.594 518.982 394.727 518.59 394.727ZM525.274 392.545V410H523.263V392.545H525.274Z" fill="black"/>
<rect x="468" y="425" width="503" height="47" rx="9" fill="white" stroke="black" stroke-width="2"/>
<path d="M468.159 498.42V496.545H481.25V498.42H475.761V514H473.648V498.42H468.159ZM487.83 514.273C486.568 514.273 485.48 513.994 484.565 513.438C483.656 512.875 482.955 512.091 482.46 511.085C481.972 510.074 481.727 508.898 481.727 507.557C481.727 506.216 481.972 505.034 482.46 504.011C482.955 502.983 483.642 502.182 484.523 501.608C485.409 501.028 486.443 500.739 487.625 500.739C488.307 500.739 488.98 500.852 489.645 501.08C490.31 501.307 490.915 501.676 491.46 502.188C492.006 502.693 492.44 503.364 492.764 504.199C493.088 505.034 493.25 506.062 493.25 507.284V508.136H483.159V506.398H491.205C491.205 505.659 491.057 505 490.761 504.42C490.472 503.841 490.057 503.384 489.517 503.048C488.983 502.713 488.352 502.545 487.625 502.545C486.824 502.545 486.131 502.744 485.545 503.142C484.966 503.534 484.52 504.045 484.207 504.676C483.895 505.307 483.739 505.983 483.739 506.705V507.864C483.739 508.852 483.909 509.69 484.25 510.378C484.597 511.06 485.077 511.58 485.69 511.938C486.304 512.29 487.017 512.466 487.83 512.466C488.358 512.466 488.835 512.392 489.261 512.244C489.693 512.091 490.065 511.864 490.378 511.562C490.69 511.256 490.932 510.875 491.102 510.42L493.045 510.966C492.841 511.625 492.497 512.205 492.014 512.705C491.531 513.199 490.935 513.585 490.224 513.864C489.514 514.136 488.716 514.273 487.83 514.273ZM498.321 496.545V514H496.31V496.545H498.321ZM507.494 514.273C506.232 514.273 505.144 513.994 504.229 513.438C503.32 512.875 502.619 512.091 502.124 511.085C501.636 510.074 501.391 508.898 501.391 507.557C501.391 506.216 501.636 505.034 502.124 504.011C502.619 502.983 503.306 502.182 504.187 501.608C505.073 501.028 506.107 500.739 507.289 500.739C507.971 500.739 508.644 500.852 509.309 501.08C509.974 501.307 510.579 501.676 511.124 502.188C511.67 502.693 512.104 503.364 512.428 504.199C512.752 505.034 512.914 506.062 512.914 507.284V508.136H502.823V506.398H510.869C510.869 505.659 510.721 505 510.425 504.42C510.136 503.841 509.721 503.384 509.181 503.048C508.647 502.713 508.016 502.545 507.289 502.545C506.488 502.545 505.795 502.744 505.21 503.142C504.63 503.534 504.184 504.045 503.871 504.676C503.559 505.307 503.403 505.983 503.403 506.705V507.864C503.403 508.852 503.573 509.69 503.914 510.378C504.261 511.06 504.741 511.58 505.354 511.938C505.968 512.29 506.681 512.466 507.494 512.466C508.022 512.466 508.499 512.392 508.925 512.244C509.357 512.091 509.729 511.864 510.042 511.562C510.354 511.256 510.596 510.875 510.766 510.42L512.71 510.966C512.505 511.625 512.161 512.205 511.678 512.705C511.195 513.199 510.599 513.585 509.888 513.864C509.178 514.136 508.38 514.273 507.494 514.273ZM515.974 518.909V500.909H517.917V502.989H518.156C518.303 502.761 518.508 502.472 518.769 502.119C519.036 501.761 519.417 501.443 519.911 501.165C520.411 500.881 521.087 500.739 521.94 500.739C523.042 500.739 524.013 501.014 524.854 501.565C525.695 502.116 526.352 502.898 526.823 503.909C527.295 504.92 527.531 506.114 527.531 507.489C527.531 508.875 527.295 510.077 526.823 511.094C526.352 512.105 525.698 512.889 524.863 513.446C524.028 513.997 523.065 514.273 521.974 514.273C521.133 514.273 520.46 514.134 519.954 513.855C519.448 513.571 519.059 513.25 518.786 512.892C518.513 512.528 518.303 512.227 518.156 511.989H517.985V518.909H515.974ZM517.951 507.455C517.951 508.443 518.096 509.315 518.386 510.071C518.675 510.821 519.099 511.409 519.656 511.835C520.212 512.256 520.894 512.466 521.701 512.466C522.542 512.466 523.244 512.244 523.806 511.801C524.374 511.352 524.8 510.75 525.085 509.994C525.374 509.233 525.519 508.386 525.519 507.455C525.519 506.534 525.377 505.705 525.093 504.966C524.815 504.222 524.391 503.634 523.823 503.202C523.261 502.764 522.553 502.545 521.701 502.545C520.883 502.545 520.195 502.753 519.638 503.168C519.082 503.577 518.661 504.151 518.377 504.889C518.093 505.622 517.951 506.477 517.951 507.455ZM532.61 506.125V514H530.599V496.545H532.61V502.955H532.781C533.087 502.278 533.548 501.741 534.161 501.344C534.781 500.94 535.604 500.739 536.633 500.739C537.525 500.739 538.306 500.918 538.977 501.276C539.647 501.628 540.167 502.17 540.536 502.903C540.911 503.631 541.099 504.557 541.099 505.682V514H539.087V505.818C539.087 504.778 538.817 503.974 538.278 503.406C537.744 502.832 537.002 502.545 536.053 502.545C535.394 502.545 534.803 502.685 534.281 502.963C533.763 503.241 533.354 503.648 533.053 504.182C532.758 504.716 532.61 505.364 532.61 506.125ZM550.097 514.273C548.915 514.273 547.878 513.991 546.986 513.429C546.099 512.866 545.406 512.08 544.906 511.068C544.412 510.057 544.165 508.875 544.165 507.523C544.165 506.159 544.412 504.969 544.906 503.952C545.406 502.935 546.099 502.145 546.986 501.582C547.878 501.02 548.915 500.739 550.097 500.739C551.278 500.739 552.313 501.02 553.199 501.582C554.091 502.145 554.784 502.935 555.278 503.952C555.778 504.969 556.028 506.159 556.028 507.523C556.028 508.875 555.778 510.057 555.278 511.068C554.784 512.08 554.091 512.866 553.199 513.429C552.313 513.991 551.278 514.273 550.097 514.273ZM550.097 512.466C550.994 512.466 551.733 512.236 552.312 511.776C552.892 511.315 553.321 510.71 553.599 509.96C553.878 509.21 554.017 508.398 554.017 507.523C554.017 506.648 553.878 505.832 553.599 505.077C553.321 504.321 552.892 503.71 552.312 503.244C551.733 502.778 550.994 502.545 550.097 502.545C549.199 502.545 548.46 502.778 547.881 503.244C547.301 503.71 546.872 504.321 546.594 505.077C546.315 505.832 546.176 506.648 546.176 507.523C546.176 508.398 546.315 509.21 546.594 509.96C546.872 510.71 547.301 511.315 547.881 511.776C548.46 512.236 549.199 512.466 550.097 512.466ZM561.11 506.125V514H559.099V500.909H561.042V502.955H561.212C561.519 502.29 561.985 501.756 562.61 501.352C563.235 500.943 564.042 500.739 565.031 500.739C565.917 500.739 566.692 500.92 567.357 501.284C568.022 501.642 568.539 502.188 568.908 502.92C569.278 503.648 569.462 504.568 569.462 505.682V514H567.451V505.818C567.451 504.79 567.184 503.989 566.65 503.415C566.116 502.835 565.383 502.545 564.451 502.545C563.809 502.545 563.235 502.685 562.729 502.963C562.229 503.241 561.835 503.648 561.545 504.182C561.255 504.716 561.11 505.364 561.11 506.125ZM578.626 514.273C577.365 514.273 576.277 513.994 575.362 513.438C574.453 512.875 573.751 512.091 573.257 511.085C572.768 510.074 572.524 508.898 572.524 507.557C572.524 506.216 572.768 505.034 573.257 504.011C573.751 502.983 574.439 502.182 575.32 501.608C576.206 501.028 577.24 500.739 578.422 500.739C579.104 500.739 579.777 500.852 580.442 501.08C581.107 501.307 581.712 501.676 582.257 502.188C582.803 502.693 583.237 503.364 583.561 504.199C583.885 505.034 584.047 506.062 584.047 507.284V508.136H573.956V506.398H582.001C582.001 505.659 581.854 505 581.558 504.42C581.268 503.841 580.854 503.384 580.314 503.048C579.78 502.713 579.149 502.545 578.422 502.545C577.621 502.545 576.928 502.744 576.342 503.142C575.763 503.534 575.317 504.045 575.004 504.676C574.692 505.307 574.536 505.983 574.536 506.705V507.864C574.536 508.852 574.706 509.69 575.047 510.378C575.393 511.06 575.874 511.58 576.487 511.938C577.101 512.29 577.814 512.466 578.626 512.466C579.155 512.466 579.632 512.392 580.058 512.244C580.49 512.091 580.862 511.864 581.175 511.562C581.487 511.256 581.729 510.875 581.899 510.42L583.842 510.966C583.638 511.625 583.294 512.205 582.811 512.705C582.328 513.199 581.732 513.585 581.021 513.864C580.311 514.136 579.513 514.273 578.626 514.273Z" fill="black"/>
<rect x="468" y="529" width="503" height="47" rx="9" fill="white" stroke="black" stroke-width="2"/>
<path d="M469.114 618V600.545H475.011C476.381 600.545 477.5 600.793 478.369 601.287C479.244 601.776 479.892 602.438 480.312 603.273C480.733 604.108 480.943 605.04 480.943 606.068C480.943 607.097 480.733 608.031 480.312 608.872C479.898 609.713 479.256 610.384 478.386 610.884C477.517 611.378 476.403 611.625 475.045 611.625H470.818V609.75H474.977C475.915 609.75 476.668 609.588 477.236 609.264C477.804 608.94 478.216 608.503 478.472 607.952C478.733 607.395 478.864 606.767 478.864 606.068C478.864 605.369 478.733 604.744 478.472 604.193C478.216 603.642 477.801 603.21 477.227 602.898C476.653 602.58 475.892 602.42 474.943 602.42H471.227V618H469.114ZM487.928 618.307C487.098 618.307 486.345 618.151 485.669 617.838C484.993 617.52 484.456 617.062 484.058 616.466C483.661 615.864 483.462 615.136 483.462 614.284C483.462 613.534 483.609 612.926 483.905 612.46C484.2 611.989 484.595 611.619 485.089 611.352C485.584 611.085 486.129 610.886 486.726 610.756C487.328 610.619 487.933 610.511 488.541 610.432C489.337 610.33 489.982 610.253 490.476 610.202C490.976 610.145 491.339 610.051 491.567 609.92C491.8 609.79 491.916 609.562 491.916 609.239V609.17C491.916 608.33 491.686 607.676 491.226 607.21C490.771 606.744 490.081 606.511 489.155 606.511C488.195 606.511 487.442 606.722 486.896 607.142C486.351 607.562 485.967 608.011 485.746 608.489L483.837 607.807C484.178 607.011 484.632 606.392 485.2 605.949C485.774 605.5 486.399 605.187 487.075 605.011C487.757 604.83 488.428 604.739 489.087 604.739C489.507 604.739 489.99 604.79 490.536 604.892C491.087 604.989 491.618 605.19 492.129 605.497C492.646 605.804 493.075 606.267 493.416 606.886C493.757 607.506 493.928 608.335 493.928 609.375V618H491.916V616.227H491.814C491.678 616.511 491.45 616.815 491.132 617.139C490.814 617.463 490.391 617.739 489.862 617.966C489.334 618.193 488.689 618.307 487.928 618.307ZM488.234 616.5C489.03 616.5 489.7 616.344 490.246 616.031C490.797 615.719 491.212 615.315 491.49 614.821C491.774 614.327 491.916 613.807 491.916 613.261V611.42C491.831 611.523 491.643 611.616 491.354 611.702C491.07 611.781 490.74 611.852 490.365 611.915C489.996 611.972 489.635 612.023 489.283 612.068C488.936 612.108 488.655 612.142 488.439 612.17C487.916 612.239 487.428 612.349 486.973 612.503C486.524 612.651 486.161 612.875 485.882 613.176C485.609 613.472 485.473 613.875 485.473 614.386C485.473 615.085 485.732 615.614 486.249 615.972C486.771 616.324 487.433 616.5 488.234 616.5ZM506.871 607.841L505.065 608.352C504.951 608.051 504.783 607.759 504.562 607.474C504.346 607.185 504.05 606.946 503.675 606.759C503.3 606.571 502.82 606.477 502.235 606.477C501.434 606.477 500.766 606.662 500.232 607.031C499.704 607.395 499.44 607.858 499.44 608.42C499.44 608.92 499.621 609.315 499.985 609.605C500.349 609.895 500.917 610.136 501.69 610.33L503.633 610.807C504.803 611.091 505.675 611.526 506.249 612.111C506.823 612.69 507.11 613.437 507.11 614.352C507.11 615.102 506.894 615.773 506.462 616.364C506.036 616.955 505.44 617.42 504.673 617.761C503.906 618.102 503.013 618.273 501.996 618.273C500.661 618.273 499.556 617.983 498.681 617.403C497.806 616.824 497.252 615.977 497.019 614.864L498.928 614.386C499.11 615.091 499.454 615.619 499.96 615.972C500.471 616.324 501.138 616.5 501.962 616.5C502.9 616.5 503.644 616.301 504.195 615.903C504.752 615.5 505.031 615.017 505.031 614.455C505.031 614 504.871 613.619 504.553 613.312C504.235 613 503.746 612.767 503.087 612.614L500.906 612.102C499.707 611.818 498.826 611.378 498.263 610.781C497.707 610.179 497.428 609.426 497.428 608.523C497.428 607.784 497.636 607.131 498.05 606.562C498.471 605.994 499.042 605.548 499.763 605.224C500.491 604.901 501.315 604.739 502.235 604.739C503.531 604.739 504.548 605.023 505.286 605.591C506.031 606.159 506.559 606.909 506.871 607.841ZM519.411 607.841L517.604 608.352C517.49 608.051 517.322 607.759 517.101 607.474C516.885 607.185 516.589 606.946 516.214 606.759C515.839 606.571 515.359 606.477 514.774 606.477C513.973 606.477 513.305 606.662 512.771 607.031C512.243 607.395 511.979 607.858 511.979 608.42C511.979 608.92 512.161 609.315 512.524 609.605C512.888 609.895 513.456 610.136 514.229 610.33L516.172 610.807C517.342 611.091 518.214 611.526 518.788 612.111C519.362 612.69 519.649 613.437 519.649 614.352C519.649 615.102 519.433 615.773 519.001 616.364C518.575 616.955 517.979 617.42 517.212 617.761C516.445 618.102 515.553 618.273 514.536 618.273C513.2 618.273 512.095 617.983 511.22 617.403C510.345 616.824 509.791 615.977 509.558 614.864L511.467 614.386C511.649 615.091 511.993 615.619 512.499 615.972C513.01 616.324 513.678 616.5 514.501 616.5C515.439 616.5 516.183 616.301 516.734 615.903C517.291 615.5 517.57 615.017 517.57 614.455C517.57 614 517.411 613.619 517.092 613.312C516.774 613 516.286 612.767 515.626 612.614L513.445 612.102C512.246 611.818 511.365 611.378 510.803 610.781C510.246 610.179 509.967 609.426 509.967 608.523C509.967 607.784 510.175 607.131 510.589 606.562C511.01 605.994 511.581 605.548 512.303 605.224C513.03 604.901 513.854 604.739 514.774 604.739C516.07 604.739 517.087 605.023 517.825 605.591C518.57 606.159 519.098 606.909 519.411 607.841ZM525.643 618L521.654 604.909H523.768L526.597 614.932H526.734L529.529 604.909H531.677L534.438 614.898H534.575L537.404 604.909H539.518L535.529 618H533.552L530.688 607.943H530.484L527.62 618H525.643ZM547.05 618.273C545.868 618.273 544.831 617.991 543.939 617.429C543.053 616.866 542.359 616.08 541.859 615.068C541.365 614.057 541.118 612.875 541.118 611.523C541.118 610.159 541.365 608.969 541.859 607.952C542.359 606.935 543.053 606.145 543.939 605.582C544.831 605.02 545.868 604.739 547.05 604.739C548.232 604.739 549.266 605.02 550.152 605.582C551.044 606.145 551.737 606.935 552.232 607.952C552.732 608.969 552.982 610.159 552.982 611.523C552.982 612.875 552.732 614.057 552.232 615.068C551.737 616.08 551.044 616.866 550.152 617.429C549.266 617.991 548.232 618.273 547.05 618.273ZM547.05 616.466C547.947 616.466 548.686 616.236 549.266 615.776C549.845 615.315 550.274 614.71 550.553 613.96C550.831 613.21 550.97 612.398 550.97 611.523C550.97 610.648 550.831 609.832 550.553 609.077C550.274 608.321 549.845 607.71 549.266 607.244C548.686 606.778 547.947 606.545 547.05 606.545C546.152 606.545 545.413 606.778 544.834 607.244C544.254 607.71 543.825 608.321 543.547 609.077C543.268 609.832 543.129 610.648 543.129 611.523C543.129 612.398 543.268 613.21 543.547 613.96C543.825 614.71 544.254 615.315 544.834 615.776C545.413 616.236 546.152 616.466 547.05 616.466ZM556.052 618V604.909H557.995V606.886H558.131C558.37 606.239 558.802 605.713 559.427 605.31C560.052 604.906 560.756 604.705 561.54 604.705C561.688 604.705 561.873 604.707 562.094 604.713C562.316 604.719 562.484 604.727 562.597 604.739V606.784C562.529 606.767 562.373 606.741 562.129 606.707C561.89 606.668 561.637 606.648 561.37 606.648C560.734 606.648 560.165 606.781 559.665 607.048C559.171 607.31 558.779 607.673 558.489 608.139C558.205 608.599 558.063 609.125 558.063 609.716V618H556.052ZM569.526 618.273C568.435 618.273 567.472 617.997 566.637 617.446C565.802 616.889 565.148 616.105 564.677 615.094C564.205 614.077 563.969 612.875 563.969 611.489C563.969 610.114 564.205 608.92 564.677 607.909C565.148 606.898 565.805 606.116 566.646 605.565C567.487 605.014 568.458 604.739 569.56 604.739C570.413 604.739 571.086 604.881 571.58 605.165C572.08 605.443 572.461 605.761 572.722 606.119C572.989 606.472 573.197 606.761 573.344 606.989H573.515V600.545H575.526V618H573.583V615.989H573.344C573.197 616.227 572.987 616.528 572.714 616.892C572.441 617.25 572.052 617.571 571.546 617.855C571.04 618.134 570.367 618.273 569.526 618.273ZM569.799 616.466C570.606 616.466 571.288 616.256 571.844 615.835C572.401 615.409 572.825 614.821 573.114 614.071C573.404 613.315 573.549 612.443 573.549 611.455C573.549 610.477 573.407 609.622 573.123 608.889C572.839 608.151 572.418 607.577 571.862 607.168C571.305 606.753 570.617 606.545 569.799 606.545C568.947 606.545 568.237 606.764 567.668 607.202C567.106 607.634 566.683 608.222 566.398 608.966C566.12 609.705 565.981 610.534 565.981 611.455C565.981 612.386 566.123 613.233 566.407 613.994C566.697 614.75 567.123 615.352 567.685 615.801C568.254 616.244 568.958 616.466 569.799 616.466Z" fill="black"/>
<rect x="468" y="633" width="503" height="47" rx="9" fill="white" stroke="black" stroke-width="2"/>
<path d="M469.114 722V704.545H475.011C476.381 704.545 477.5 704.793 478.369 705.287C479.244 705.776 479.892 706.438 480.312 707.273C480.733 708.108 480.943 709.04 480.943 710.068C480.943 711.097 480.733 712.031 480.312 712.872C479.898 713.713 479.256 714.384 478.386 714.884C477.517 715.378 476.403 715.625 475.045 715.625H470.818V713.75H474.977C475.915 713.75 476.668 713.588 477.236 713.264C477.804 712.94 478.216 712.503 478.472 711.952C478.733 711.395 478.864 710.767 478.864 710.068C478.864 709.369 478.733 708.744 478.472 708.193C478.216 707.642 477.801 707.21 477.227 706.898C476.653 706.58 475.892 706.42 474.943 706.42H471.227V722H469.114ZM487.928 722.307C487.098 722.307 486.345 722.151 485.669 721.838C484.993 721.52 484.456 721.062 484.058 720.466C483.661 719.864 483.462 719.136 483.462 718.284C483.462 717.534 483.609 716.926 483.905 716.46C484.2 715.989 484.595 715.619 485.089 715.352C485.584 715.085 486.129 714.886 486.726 714.756C487.328 714.619 487.933 714.511 488.541 714.432C489.337 714.33 489.982 714.253 490.476 714.202C490.976 714.145 491.339 714.051 491.567 713.92C491.8 713.79 491.916 713.562 491.916 713.239V713.17C491.916 712.33 491.686 711.676 491.226 711.21C490.771 710.744 490.081 710.511 489.155 710.511C488.195 710.511 487.442 710.722 486.896 711.142C486.351 711.562 485.967 712.011 485.746 712.489L483.837 711.807C484.178 711.011 484.632 710.392 485.2 709.949C485.774 709.5 486.399 709.187 487.075 709.011C487.757 708.83 488.428 708.739 489.087 708.739C489.507 708.739 489.99 708.79 490.536 708.892C491.087 708.989 491.618 709.19 492.129 709.497C492.646 709.804 493.075 710.267 493.416 710.886C493.757 711.506 493.928 712.335 493.928 713.375V722H491.916V720.227H491.814C491.678 720.511 491.45 720.815 491.132 721.139C490.814 721.463 490.391 721.739 489.862 721.966C489.334 722.193 488.689 722.307 487.928 722.307ZM488.234 720.5C489.03 720.5 489.7 720.344 490.246 720.031C490.797 719.719 491.212 719.315 491.49 718.821C491.774 718.327 491.916 717.807 491.916 717.261V715.42C491.831 715.523 491.643 715.616 491.354 715.702C491.07 715.781 490.74 715.852 490.365 715.915C489.996 715.972 489.635 716.023 489.283 716.068C488.936 716.108 488.655 716.142 488.439 716.17C487.916 716.239 487.428 716.349 486.973 716.503C486.524 716.651 486.161 716.875 485.882 717.176C485.609 717.472 485.473 717.875 485.473 718.386C485.473 719.085 485.732 719.614 486.249 719.972C486.771 720.324 487.433 720.5 488.234 720.5ZM506.871 711.841L505.065 712.352C504.951 712.051 504.783 711.759 504.562 711.474C504.346 711.185 504.05 710.946 503.675 710.759C503.3 710.571 502.82 710.477 502.235 710.477C501.434 710.477 500.766 710.662 500.232 711.031C499.704 711.395 499.44 711.858 499.44 712.42C499.44 712.92 499.621 713.315 499.985 713.605C500.349 713.895 500.917 714.136 501.69 714.33L503.633 714.807C504.803 715.091 505.675 715.526 506.249 716.111C506.823 716.69 507.11 717.437 507.11 718.352C507.11 719.102 506.894 719.773 506.462 720.364C506.036 720.955 505.44 721.42 504.673 721.761C503.906 722.102 503.013 722.273 501.996 722.273C500.661 722.273 499.556 721.983 498.681 721.403C497.806 720.824 497.252 719.977 497.019 718.864L498.928 718.386C499.11 719.091 499.454 719.619 499.96 719.972C500.471 720.324 501.138 720.5 501.962 720.5C502.9 720.5 503.644 720.301 504.195 719.903C504.752 719.5 505.031 719.017 505.031 718.455C505.031 718 504.871 717.619 504.553 717.312C504.235 717 503.746 716.767 503.087 716.614L500.906 716.102C499.707 715.818 498.826 715.378 498.263 714.781C497.707 714.179 497.428 713.426 497.428 712.523C497.428 711.784 497.636 711.131 498.05 710.562C498.471 709.994 499.042 709.548 499.763 709.224C500.491 708.901 501.315 708.739 502.235 708.739C503.531 708.739 504.548 709.023 505.286 709.591C506.031 710.159 506.559 710.909 506.871 711.841ZM519.411 711.841L517.604 712.352C517.49 712.051 517.322 711.759 517.101 711.474C516.885 711.185 516.589 710.946 516.214 710.759C515.839 710.571 515.359 710.477 514.774 710.477C513.973 710.477 513.305 710.662 512.771 711.031C512.243 711.395 511.979 711.858 511.979 712.42C511.979 712.92 512.161 713.315 512.524 713.605C512.888 713.895 513.456 714.136 514.229 714.33L516.172 714.807C517.342 715.091 518.214 715.526 518.788 716.111C519.362 716.69 519.649 717.437 519.649 718.352C519.649 719.102 519.433 719.773 519.001 720.364C518.575 720.955 517.979 721.42 517.212 721.761C516.445 722.102 515.553 722.273 514.536 722.273C513.2 722.273 512.095 721.983 511.22 721.403C510.345 720.824 509.791 719.977 509.558 718.864L511.467 718.386C511.649 719.091 511.993 719.619 512.499 719.972C513.01 720.324 513.678 720.5 514.501 720.5C515.439 720.5 516.183 720.301 516.734 719.903C517.291 719.5 517.57 719.017 517.57 718.455C517.57 718 517.411 717.619 517.092 717.312C516.774 717 516.286 716.767 515.626 716.614L513.445 716.102C512.246 715.818 511.365 715.378 510.803 714.781C510.246 714.179 509.967 713.426 509.967 712.523C509.967 711.784 510.175 711.131 510.589 710.562C511.01 709.994 511.581 709.548 512.303 709.224C513.03 708.901 513.854 708.739 514.774 708.739C516.07 708.739 517.087 709.023 517.825 709.591C518.57 710.159 519.098 710.909 519.411 711.841ZM525.643 722L521.654 708.909H523.768L526.597 718.932H526.734L529.529 708.909H531.677L534.438 718.898H534.575L537.404 708.909H539.518L535.529 722H533.552L530.688 711.943H530.484L527.62 722H525.643ZM547.05 722.273C545.868 722.273 544.831 721.991 543.939 721.429C543.053 720.866 542.359 720.08 541.859 719.068C541.365 718.057 541.118 716.875 541.118 715.523C541.118 714.159 541.365 712.969 541.859 711.952C542.359 710.935 543.053 710.145 543.939 709.582C544.831 709.02 545.868 708.739 547.05 708.739C548.232 708.739 549.266 709.02 550.152 709.582C551.044 710.145 551.737 710.935 552.232 711.952C552.732 712.969 552.982 714.159 552.982 715.523C552.982 716.875 552.732 718.057 552.232 719.068C551.737 720.08 551.044 720.866 550.152 721.429C549.266 721.991 548.232 722.273 547.05 722.273ZM547.05 720.466C547.947 720.466 548.686 720.236 549.266 719.776C549.845 719.315 550.274 718.71 550.553 717.96C550.831 717.21 550.97 716.398 550.97 715.523C550.97 714.648 550.831 713.832 550.553 713.077C550.274 712.321 549.845 711.71 549.266 711.244C548.686 710.778 547.947 710.545 547.05 710.545C546.152 710.545 545.413 710.778 544.834 711.244C544.254 711.71 543.825 712.321 543.547 713.077C543.268 713.832 543.129 714.648 543.129 715.523C543.129 716.398 543.268 717.21 543.547 717.96C543.825 718.71 544.254 719.315 544.834 719.776C545.413 720.236 546.152 720.466 547.05 720.466ZM556.052 722V708.909H557.995V710.886H558.131C558.37 710.239 558.802 709.713 559.427 709.31C560.052 708.906 560.756 708.705 561.54 708.705C561.688 708.705 561.873 708.707 562.094 708.713C562.316 708.719 562.484 708.727 562.597 708.739V710.784C562.529 710.767 562.373 710.741 562.129 710.707C561.89 710.668 561.637 710.648 561.37 710.648C560.734 710.648 560.165 710.781 559.665 711.048C559.171 711.31 558.779 711.673 558.489 712.139C558.205 712.599 558.063 713.125 558.063 713.716V722H556.052ZM569.526 722.273C568.435 722.273 567.472 721.997 566.637 721.446C565.802 720.889 565.148 720.105 564.677 719.094C564.205 718.077 563.969 716.875 563.969 715.489C563.969 714.114 564.205 712.92 564.677 711.909C565.148 710.898 565.805 710.116 566.646 709.565C567.487 709.014 568.458 708.739 569.56 708.739C570.413 708.739 571.086 708.881 571.58 709.165C572.08 709.443 572.461 709.761 572.722 710.119C572.989 710.472 573.197 710.761 573.344 710.989H573.515V704.545H575.526V722H573.583V719.989H573.344C573.197 720.227 572.987 720.528 572.714 720.892C572.441 721.25 572.052 721.571 571.546 721.855C571.04 722.134 570.367 722.273 569.526 722.273ZM569.799 720.466C570.606 720.466 571.288 720.256 571.844 719.835C572.401 719.409 572.825 718.821 573.114 718.071C573.404 717.315 573.549 716.443 573.549 715.455C573.549 714.477 573.407 713.622 573.123 712.889C572.839 712.151 572.418 711.577 571.862 711.168C571.305 710.753 570.617 710.545 569.799 710.545C568.947 710.545 568.237 710.764 567.668 711.202C567.106 711.634 566.683 712.222 566.398 712.966C566.12 713.705 565.981 714.534 565.981 715.455C565.981 716.386 566.123 717.233 566.407 717.994C566.697 718.75 567.123 719.352 567.685 719.801C568.254 720.244 568.958 720.466 569.799 720.466ZM586.512 722V704.545H592.41C593.773 704.545 594.893 704.778 595.768 705.244C596.643 705.705 597.29 706.338 597.711 707.145C598.131 707.952 598.342 708.869 598.342 709.898C598.342 710.926 598.131 711.838 597.711 712.634C597.29 713.429 596.646 714.054 595.776 714.509C594.907 714.957 593.796 715.182 592.444 715.182H587.671V713.273H592.376C593.308 713.273 594.058 713.136 594.626 712.864C595.2 712.591 595.614 712.205 595.87 711.705C596.131 711.199 596.262 710.597 596.262 709.898C596.262 709.199 596.131 708.588 595.87 708.065C595.609 707.543 595.191 707.139 594.617 706.855C594.043 706.565 593.285 706.42 592.342 706.42H588.626V722H586.512ZM594.728 714.159L599.023 722H596.569L592.342 714.159H594.728ZM606.939 722.273C605.678 722.273 604.589 721.994 603.675 721.438C602.766 720.875 602.064 720.091 601.57 719.085C601.081 718.074 600.837 716.898 600.837 715.557C600.837 714.216 601.081 713.034 601.57 712.011C602.064 710.983 602.751 710.182 603.632 709.608C604.518 709.028 605.553 708.739 606.734 708.739C607.416 708.739 608.089 708.852 608.754 709.08C609.419 709.307 610.024 709.676 610.57 710.188C611.115 710.693 611.55 711.364 611.874 712.199C612.197 713.034 612.359 714.062 612.359 715.284V716.136H602.268V714.398H610.314C610.314 713.659 610.166 713 609.871 712.42C609.581 711.841 609.166 711.384 608.626 711.048C608.092 710.713 607.462 710.545 606.734 710.545C605.933 710.545 605.24 710.744 604.655 711.142C604.075 711.534 603.629 712.045 603.317 712.676C603.004 713.307 602.848 713.983 602.848 714.705V715.864C602.848 716.852 603.018 717.69 603.359 718.378C603.706 719.06 604.186 719.58 604.8 719.938C605.413 720.29 606.126 720.466 606.939 720.466C607.467 720.466 607.945 720.392 608.371 720.244C608.803 720.091 609.175 719.864 609.487 719.562C609.8 719.256 610.041 718.875 610.212 718.42L612.155 718.966C611.95 719.625 611.607 720.205 611.124 720.705C610.641 721.199 610.044 721.585 609.334 721.864C608.624 722.136 607.825 722.273 606.939 722.273ZM615.419 726.909V708.909H617.362V710.989H617.601C617.749 710.761 617.953 710.472 618.214 710.119C618.482 709.761 618.862 709.443 619.357 709.165C619.857 708.881 620.533 708.739 621.385 708.739C622.487 708.739 623.459 709.014 624.3 709.565C625.141 710.116 625.797 710.898 626.268 711.909C626.74 712.92 626.976 714.114 626.976 715.489C626.976 716.875 626.74 718.077 626.268 719.094C625.797 720.105 625.143 720.889 624.308 721.446C623.473 721.997 622.51 722.273 621.419 722.273C620.578 722.273 619.905 722.134 619.399 721.855C618.893 721.571 618.504 721.25 618.232 720.892C617.959 720.528 617.749 720.227 617.601 719.989H617.43V726.909H615.419ZM617.396 715.455C617.396 716.443 617.541 717.315 617.831 718.071C618.121 718.821 618.544 719.409 619.101 719.835C619.658 720.256 620.339 720.466 621.146 720.466C621.987 720.466 622.689 720.244 623.251 719.801C623.82 719.352 624.246 718.75 624.53 717.994C624.82 717.233 624.964 716.386 624.964 715.455C624.964 714.534 624.822 713.705 624.538 712.966C624.26 712.222 623.837 711.634 623.268 711.202C622.706 710.764 621.999 710.545 621.146 710.545C620.328 710.545 619.641 710.753 619.084 711.168C618.527 711.577 618.107 712.151 617.822 712.889C617.538 713.622 617.396 714.477 617.396 715.455ZM635.533 722.273C634.271 722.273 633.183 721.994 632.268 721.438C631.359 720.875 630.658 720.091 630.163 719.085C629.675 718.074 629.43 716.898 629.43 715.557C629.43 714.216 629.675 713.034 630.163 712.011C630.658 710.983 631.345 710.182 632.226 709.608C633.112 709.028 634.146 708.739 635.328 708.739C636.01 708.739 636.683 708.852 637.348 709.08C638.013 709.307 638.618 709.676 639.163 710.188C639.709 710.693 640.143 711.364 640.467 712.199C640.791 713.034 640.953 714.062 640.953 715.284V716.136H630.862V714.398H638.908C638.908 713.659 638.76 713 638.464 712.42C638.175 711.841 637.76 711.384 637.22 711.048C636.686 710.713 636.055 710.545 635.328 710.545C634.527 710.545 633.834 710.744 633.249 711.142C632.669 711.534 632.223 712.045 631.911 712.676C631.598 713.307 631.442 713.983 631.442 714.705V715.864C631.442 716.852 631.612 717.69 631.953 718.378C632.3 719.06 632.78 719.58 633.393 719.938C634.007 720.29 634.72 720.466 635.533 720.466C636.061 720.466 636.538 720.392 636.964 720.244C637.396 720.091 637.768 719.864 638.081 719.562C638.393 719.256 638.635 718.875 638.805 718.42L640.749 718.966C640.544 719.625 640.2 720.205 639.717 720.705C639.234 721.199 638.638 721.585 637.928 721.864C637.217 722.136 636.419 722.273 635.533 722.273ZM647.865 722.307C647.036 722.307 646.283 722.151 645.607 721.838C644.93 721.52 644.393 721.062 643.996 720.466C643.598 719.864 643.399 719.136 643.399 718.284C643.399 717.534 643.547 716.926 643.842 716.46C644.138 715.989 644.533 715.619 645.027 715.352C645.521 715.085 646.067 714.886 646.663 714.756C647.266 714.619 647.871 714.511 648.479 714.432C649.274 714.33 649.919 714.253 650.413 714.202C650.913 714.145 651.277 714.051 651.504 713.92C651.737 713.79 651.854 713.562 651.854 713.239V713.17C651.854 712.33 651.624 711.676 651.163 711.21C650.709 710.744 650.018 710.511 649.092 710.511C648.132 710.511 647.379 710.722 646.834 711.142C646.288 711.562 645.905 712.011 645.683 712.489L643.774 711.807C644.115 711.011 644.57 710.392 645.138 709.949C645.712 709.5 646.337 709.187 647.013 709.011C647.695 708.83 648.365 708.739 649.024 708.739C649.445 708.739 649.928 708.79 650.473 708.892C651.024 708.989 651.555 709.19 652.067 709.497C652.584 709.804 653.013 710.267 653.354 710.886C653.695 711.506 653.865 712.335 653.865 713.375V722H651.854V720.227H651.751C651.615 720.511 651.388 720.815 651.07 721.139C650.751 721.463 650.328 721.739 649.8 721.966C649.271 722.193 648.626 722.307 647.865 722.307ZM648.172 720.5C648.967 720.5 649.638 720.344 650.183 720.031C650.734 719.719 651.149 719.315 651.428 718.821C651.712 718.327 651.854 717.807 651.854 717.261V715.42C651.768 715.523 651.581 715.616 651.291 715.702C651.007 715.781 650.678 715.852 650.303 715.915C649.933 715.972 649.572 716.023 649.22 716.068C648.874 716.108 648.592 716.142 648.376 716.17C647.854 716.239 647.365 716.349 646.911 716.503C646.462 716.651 646.098 716.875 645.82 717.176C645.547 717.472 645.411 717.875 645.411 718.386C645.411 719.085 645.669 719.614 646.186 719.972C646.709 720.324 647.371 720.5 648.172 720.5ZM663.229 708.909V710.614H656.445V708.909H663.229ZM658.423 705.773H660.434V718.25C660.434 718.818 660.516 719.244 660.681 719.528C660.852 719.807 661.067 719.994 661.329 720.091C661.596 720.182 661.877 720.227 662.173 720.227C662.394 720.227 662.576 720.216 662.718 720.193C662.86 720.165 662.974 720.142 663.059 720.125L663.468 721.932C663.332 721.983 663.141 722.034 662.897 722.085C662.653 722.142 662.343 722.17 661.968 722.17C661.4 722.17 660.843 722.048 660.298 721.804C659.758 721.56 659.309 721.188 658.951 720.688C658.599 720.188 658.423 719.557 658.423 718.795V705.773Z" fill="black"/>
<rect x="468" y="737" width="503" height="47" rx="9" fill="white" stroke="black" stroke-width="2"/>
<rect x="482" y="828" width="232" height="60" rx="13" fill="#6AAA64"/>
<path d="M547.691 866V848.545H553.588C554.952 848.545 556.071 848.778 556.946 849.244C557.821 849.705 558.469 850.338 558.889 851.145C559.31 851.952 559.52 852.869 559.52 853.898C559.52 854.926 559.31 855.838 558.889 856.634C558.469 857.429 557.824 858.054 556.955 858.509C556.085 858.957 554.975 859.182 553.622 859.182H548.85V857.273H553.554C554.486 857.273 555.236 857.136 555.804 856.864C556.378 856.591 556.793 856.205 557.048 855.705C557.31 855.199 557.441 854.597 557.441 853.898C557.441 853.199 557.31 852.588 557.048 852.065C556.787 851.543 556.37 851.139 555.796 850.855C555.222 850.565 554.463 850.42 553.52 850.42H549.804V866H547.691ZM555.906 858.159L560.202 866H557.747L553.52 858.159H555.906ZM568.117 866.273C566.856 866.273 565.768 865.994 564.853 865.438C563.944 864.875 563.242 864.091 562.748 863.085C562.259 862.074 562.015 860.898 562.015 859.557C562.015 858.216 562.259 857.034 562.748 856.011C563.242 854.983 563.93 854.182 564.811 853.608C565.697 853.028 566.731 852.739 567.913 852.739C568.595 852.739 569.268 852.852 569.933 853.08C570.598 853.307 571.203 853.676 571.748 854.188C572.294 854.693 572.728 855.364 573.052 856.199C573.376 857.034 573.538 858.062 573.538 859.284V860.136H563.447V858.398H571.492C571.492 857.659 571.345 857 571.049 856.42C570.759 855.841 570.345 855.384 569.805 855.048C569.271 854.713 568.64 854.545 567.913 854.545C567.112 854.545 566.419 854.744 565.833 855.142C565.254 855.534 564.808 856.045 564.495 856.676C564.183 857.307 564.026 857.983 564.026 858.705V859.864C564.026 860.852 564.197 861.69 564.538 862.378C564.884 863.06 565.365 863.58 565.978 863.938C566.592 864.29 567.305 864.466 568.117 864.466C568.646 864.466 569.123 864.392 569.549 864.244C569.981 864.091 570.353 863.864 570.666 863.562C570.978 863.256 571.22 862.875 571.39 862.42L573.333 862.966C573.129 863.625 572.785 864.205 572.302 864.705C571.819 865.199 571.223 865.585 570.512 865.864C569.802 866.136 569.004 866.273 568.117 866.273ZM581.882 871.182C580.91 871.182 580.075 871.057 579.376 870.807C578.677 870.562 578.095 870.239 577.629 869.835C577.169 869.438 576.802 869.011 576.529 868.557L578.132 867.432C578.313 867.67 578.544 867.943 578.822 868.25C579.1 868.562 579.481 868.832 579.964 869.06C580.453 869.293 581.092 869.409 581.882 869.409C582.938 869.409 583.811 869.153 584.498 868.642C585.186 868.131 585.529 867.33 585.529 866.239V863.58H585.359C585.211 863.818 585.001 864.114 584.728 864.466C584.461 864.812 584.075 865.122 583.569 865.395C583.069 865.662 582.393 865.795 581.541 865.795C580.484 865.795 579.535 865.545 578.694 865.045C577.859 864.545 577.197 863.818 576.708 862.864C576.225 861.909 575.984 860.75 575.984 859.386C575.984 858.045 576.22 856.878 576.691 855.884C577.163 854.884 577.819 854.111 578.66 853.565C579.501 853.014 580.473 852.739 581.575 852.739C582.427 852.739 583.103 852.881 583.603 853.165C584.109 853.443 584.495 853.761 584.762 854.119C585.035 854.472 585.245 854.761 585.393 854.989H585.598V852.909H587.541V866.375C587.541 867.5 587.285 868.415 586.774 869.119C586.268 869.83 585.586 870.349 584.728 870.679C583.876 871.014 582.927 871.182 581.882 871.182ZM581.813 863.989C582.62 863.989 583.302 863.804 583.859 863.435C584.416 863.065 584.839 862.534 585.129 861.841C585.419 861.148 585.563 860.318 585.563 859.352C585.563 858.409 585.421 857.577 585.137 856.855C584.853 856.134 584.433 855.568 583.876 855.159C583.319 854.75 582.632 854.545 581.813 854.545C580.961 854.545 580.251 854.761 579.683 855.193C579.12 855.625 578.697 856.205 578.413 856.932C578.134 857.659 577.995 858.466 577.995 859.352C577.995 860.261 578.137 861.065 578.421 861.764C578.711 862.457 579.137 863.003 579.7 863.401C580.268 863.793 580.973 863.989 581.813 863.989ZM591.223 866V852.909H593.234V866H591.223ZM592.245 850.727C591.853 850.727 591.515 850.594 591.231 850.327C590.953 850.06 590.813 849.739 590.813 849.364C590.813 848.989 590.953 848.668 591.231 848.401C591.515 848.134 591.853 848 592.245 848C592.637 848 592.973 848.134 593.251 848.401C593.535 848.668 593.677 848.989 593.677 849.364C593.677 849.739 593.535 850.06 593.251 850.327C592.973 850.594 592.637 850.727 592.245 850.727ZM606.191 855.841L604.384 856.352C604.27 856.051 604.102 855.759 603.881 855.474C603.665 855.185 603.37 854.946 602.995 854.759C602.62 854.571 602.139 854.477 601.554 854.477C600.753 854.477 600.085 854.662 599.551 855.031C599.023 855.395 598.759 855.858 598.759 856.42C598.759 856.92 598.941 857.315 599.304 857.605C599.668 857.895 600.236 858.136 601.009 858.33L602.952 858.807C604.122 859.091 604.995 859.526 605.568 860.111C606.142 860.69 606.429 861.437 606.429 862.352C606.429 863.102 606.213 863.773 605.781 864.364C605.355 864.955 604.759 865.42 603.992 865.761C603.225 866.102 602.333 866.273 601.316 866.273C599.98 866.273 598.875 865.983 598 865.403C597.125 864.824 596.571 863.977 596.338 862.864L598.247 862.386C598.429 863.091 598.773 863.619 599.279 863.972C599.79 864.324 600.458 864.5 601.281 864.5C602.219 864.5 602.963 864.301 603.514 863.903C604.071 863.5 604.35 863.017 604.35 862.455C604.35 862 604.191 861.619 603.872 861.312C603.554 861 603.066 860.767 602.406 860.614L600.225 860.102C599.026 859.818 598.145 859.378 597.583 858.781C597.026 858.179 596.747 857.426 596.747 856.523C596.747 855.784 596.955 855.131 597.37 854.562C597.79 853.994 598.361 853.548 599.083 853.224C599.81 852.901 600.634 852.739 601.554 852.739C602.85 852.739 603.867 853.023 604.605 853.591C605.35 854.159 605.878 854.909 606.191 855.841ZM615.15 852.909V854.614H608.366V852.909H615.15ZM610.343 849.773H612.355V862.25C612.355 862.818 612.437 863.244 612.602 863.528C612.772 863.807 612.988 863.994 613.249 864.091C613.517 864.182 613.798 864.227 614.093 864.227C614.315 864.227 614.497 864.216 614.639 864.193C614.781 864.165 614.894 864.142 614.98 864.125L615.389 865.932C615.252 865.983 615.062 866.034 614.818 866.085C614.573 866.142 614.264 866.17 613.889 866.17C613.321 866.17 612.764 866.048 612.218 865.804C611.678 865.56 611.23 865.188 610.872 864.688C610.519 864.188 610.343 863.557 610.343 862.795V849.773ZM623.524 866.273C622.262 866.273 621.174 865.994 620.259 865.438C619.35 864.875 618.649 864.091 618.154 863.085C617.666 862.074 617.421 860.898 617.421 859.557C617.421 858.216 617.666 857.034 618.154 856.011C618.649 854.983 619.336 854.182 620.217 853.608C621.103 853.028 622.137 852.739 623.319 852.739C624.001 852.739 624.674 852.852 625.339 853.08C626.004 853.307 626.609 853.676 627.154 854.188C627.7 854.693 628.134 855.364 628.458 856.199C628.782 857.034 628.944 858.062 628.944 859.284V860.136H618.853V858.398H626.899C626.899 857.659 626.751 857 626.455 856.42C626.166 855.841 625.751 855.384 625.211 855.048C624.677 854.713 624.046 854.545 623.319 854.545C622.518 854.545 621.825 854.744 621.24 855.142C620.66 855.534 620.214 856.045 619.901 856.676C619.589 857.307 619.433 857.983 619.433 858.705V859.864C619.433 860.852 619.603 861.69 619.944 862.378C620.291 863.06 620.771 863.58 621.384 863.938C621.998 864.29 622.711 864.466 623.524 864.466C624.052 864.466 624.529 864.392 624.955 864.244C625.387 864.091 625.759 863.864 626.072 863.562C626.384 863.256 626.626 862.875 626.796 862.42L628.74 862.966C628.535 863.625 628.191 864.205 627.708 864.705C627.225 865.199 626.629 865.585 625.919 865.864C625.208 866.136 624.41 866.273 623.524 866.273ZM632.004 866V852.909H633.947V854.886H634.083C634.322 854.239 634.754 853.713 635.379 853.31C636.004 852.906 636.708 852.705 637.492 852.705C637.64 852.705 637.825 852.707 638.046 852.713C638.268 852.719 638.436 852.727 638.549 852.739V854.784C638.481 854.767 638.325 854.741 638.08 854.707C637.842 854.668 637.589 854.648 637.322 854.648C636.686 854.648 636.117 854.781 635.617 855.048C635.123 855.31 634.731 855.673 634.441 856.139C634.157 856.599 634.015 857.125 634.015 857.716V866H632.004Z" fill="white"/>
<rect x="720" y="828" width="232" height="60" rx="13" fill="black"/>
<path d="M732.245 866V848.545H738.347C739.563 848.545 740.566 848.756 741.355 849.176C742.145 849.591 742.733 850.151 743.12 850.855C743.506 851.554 743.699 852.33 743.699 853.182C743.699 853.932 743.566 854.551 743.299 855.04C743.037 855.528 742.691 855.915 742.259 856.199C741.833 856.483 741.37 856.693 740.87 856.83V857C741.404 857.034 741.941 857.222 742.48 857.562C743.02 857.903 743.472 858.392 743.836 859.028C744.199 859.665 744.381 860.443 744.381 861.364C744.381 862.239 744.182 863.026 743.784 863.724C743.387 864.423 742.759 864.977 741.901 865.386C741.043 865.795 739.926 866 738.551 866H732.245ZM734.358 864.125H738.551C739.932 864.125 740.912 863.858 741.492 863.324C742.077 862.784 742.37 862.131 742.37 861.364C742.37 860.773 742.219 860.227 741.918 859.727C741.617 859.222 741.188 858.818 740.631 858.517C740.074 858.21 739.415 858.057 738.654 858.057H734.358V864.125ZM734.358 856.216H738.279C738.915 856.216 739.489 856.091 740 855.841C740.517 855.591 740.926 855.239 741.228 854.784C741.534 854.33 741.688 853.795 741.688 853.182C741.688 852.415 741.421 851.764 740.887 851.23C740.353 850.69 739.506 850.42 738.347 850.42H734.358V856.216ZM751.434 866.307C750.604 866.307 749.851 866.151 749.175 865.838C748.499 865.52 747.962 865.062 747.564 864.466C747.166 863.864 746.968 863.136 746.968 862.284C746.968 861.534 747.115 860.926 747.411 860.46C747.706 859.989 748.101 859.619 748.595 859.352C749.09 859.085 749.635 858.886 750.232 858.756C750.834 858.619 751.439 858.511 752.047 858.432C752.843 858.33 753.488 858.253 753.982 858.202C754.482 858.145 754.845 858.051 755.073 857.92C755.306 857.79 755.422 857.562 755.422 857.239V857.17C755.422 856.33 755.192 855.676 754.732 855.21C754.277 854.744 753.587 854.511 752.661 854.511C751.701 854.511 750.948 854.722 750.402 855.142C749.857 855.562 749.473 856.011 749.252 856.489L747.343 855.807C747.684 855.011 748.138 854.392 748.706 853.949C749.28 853.5 749.905 853.187 750.581 853.011C751.263 852.83 751.934 852.739 752.593 852.739C753.013 852.739 753.496 852.79 754.041 852.892C754.593 852.989 755.124 853.19 755.635 853.497C756.152 853.804 756.581 854.267 756.922 854.886C757.263 855.506 757.434 856.335 757.434 857.375V866H755.422V864.227H755.32C755.184 864.511 754.956 864.815 754.638 865.139C754.32 865.463 753.897 865.739 753.368 865.966C752.84 866.193 752.195 866.307 751.434 866.307ZM751.74 864.5C752.536 864.5 753.206 864.344 753.752 864.031C754.303 863.719 754.718 863.315 754.996 862.821C755.28 862.327 755.422 861.807 755.422 861.261V859.42C755.337 859.523 755.149 859.616 754.86 859.702C754.576 859.781 754.246 859.852 753.871 859.915C753.502 859.972 753.141 860.023 752.789 860.068C752.442 860.108 752.161 860.142 751.945 860.17C751.422 860.239 750.934 860.349 750.479 860.503C750.03 860.651 749.666 860.875 749.388 861.176C749.115 861.472 748.979 861.875 748.979 862.386C748.979 863.085 749.238 863.614 749.755 863.972C750.277 864.324 750.939 864.5 751.74 864.5ZM766.423 866.273C765.196 866.273 764.139 865.983 763.252 865.403C762.366 864.824 761.684 864.026 761.207 863.009C760.73 861.991 760.491 860.83 760.491 859.523C760.491 858.193 760.735 857.02 761.224 856.003C761.718 854.98 762.406 854.182 763.287 853.608C764.173 853.028 765.207 852.739 766.389 852.739C767.309 852.739 768.139 852.909 768.877 853.25C769.616 853.591 770.221 854.068 770.693 854.682C771.164 855.295 771.457 856.011 771.571 856.83H769.559C769.406 856.233 769.065 855.705 768.537 855.244C768.014 854.778 767.309 854.545 766.423 854.545C765.639 854.545 764.951 854.75 764.36 855.159C763.775 855.562 763.318 856.134 762.988 856.872C762.664 857.605 762.502 858.466 762.502 859.455C762.502 860.466 762.662 861.347 762.98 862.097C763.304 862.847 763.758 863.429 764.343 863.844C764.934 864.259 765.627 864.466 766.423 864.466C766.946 864.466 767.42 864.375 767.846 864.193C768.272 864.011 768.633 863.75 768.929 863.409C769.224 863.068 769.434 862.659 769.559 862.182H771.571C771.457 862.955 771.176 863.651 770.727 864.27C770.284 864.884 769.696 865.372 768.963 865.736C768.235 866.094 767.389 866.273 766.423 866.273ZM776.386 861.227L776.352 858.739H776.761L782.488 852.909H784.977L778.875 859.08H778.704L776.386 861.227ZM774.511 866V848.545H776.522V866H774.511ZM782.829 866L777.715 859.523L779.147 858.125L785.386 866H782.829ZM800.009 852.909V854.614H793.225V852.909H800.009ZM795.202 849.773H797.213V862.25C797.213 862.818 797.296 863.244 797.461 863.528C797.631 863.807 797.847 863.994 798.108 864.091C798.375 864.182 798.657 864.227 798.952 864.227C799.174 864.227 799.355 864.216 799.497 864.193C799.64 864.165 799.753 864.142 799.838 864.125L800.247 865.932C800.111 865.983 799.921 866.034 799.676 866.085C799.432 866.142 799.122 866.17 798.747 866.17C798.179 866.17 797.622 866.048 797.077 865.804C796.537 865.56 796.088 865.188 795.73 864.688C795.378 864.188 795.202 863.557 795.202 862.795V849.773ZM808.212 866.273C807.03 866.273 805.993 865.991 805.101 865.429C804.215 864.866 803.522 864.08 803.022 863.068C802.527 862.057 802.28 860.875 802.28 859.523C802.28 858.159 802.527 856.969 803.022 855.952C803.522 854.935 804.215 854.145 805.101 853.582C805.993 853.02 807.03 852.739 808.212 852.739C809.394 852.739 810.428 853.02 811.314 853.582C812.206 854.145 812.899 854.935 813.394 855.952C813.894 856.969 814.144 858.159 814.144 859.523C814.144 860.875 813.894 862.057 813.394 863.068C812.899 864.08 812.206 864.866 811.314 865.429C810.428 865.991 809.394 866.273 808.212 866.273ZM808.212 864.466C809.11 864.466 809.848 864.236 810.428 863.776C811.007 863.315 811.436 862.71 811.715 861.96C811.993 861.21 812.132 860.398 812.132 859.523C812.132 858.648 811.993 857.832 811.715 857.077C811.436 856.321 811.007 855.71 810.428 855.244C809.848 854.778 809.11 854.545 808.212 854.545C807.314 854.545 806.576 854.778 805.996 855.244C805.416 855.71 804.988 856.321 804.709 857.077C804.431 857.832 804.291 858.648 804.291 859.523C804.291 860.398 804.431 861.21 804.709 861.96C804.988 862.71 805.416 863.315 805.996 863.776C806.576 864.236 807.314 864.466 808.212 864.466ZM824.237 848.545H826.76L832.691 863.034H832.896L838.828 848.545H841.35V866H839.373V852.739H839.203L833.748 866H831.839L826.385 852.739H826.214V866H824.237V848.545ZM849.168 866.307C848.338 866.307 847.586 866.151 846.909 865.838C846.233 865.52 845.696 865.062 845.299 864.466C844.901 863.864 844.702 863.136 844.702 862.284C844.702 861.534 844.85 860.926 845.145 860.46C845.441 859.989 845.836 859.619 846.33 859.352C846.824 859.085 847.37 858.886 847.966 858.756C848.568 858.619 849.174 858.511 849.782 858.432C850.577 858.33 851.222 858.253 851.716 858.202C852.216 858.145 852.58 858.051 852.807 857.92C853.04 857.79 853.157 857.562 853.157 857.239V857.17C853.157 856.33 852.926 855.676 852.466 855.21C852.012 854.744 851.321 854.511 850.395 854.511C849.435 854.511 848.682 854.722 848.137 855.142C847.591 855.562 847.208 856.011 846.986 856.489L845.077 855.807C845.418 855.011 845.872 854.392 846.441 853.949C847.015 853.5 847.64 853.187 848.316 853.011C848.997 852.83 849.668 852.739 850.327 852.739C850.747 852.739 851.23 852.79 851.776 852.892C852.327 852.989 852.858 853.19 853.37 853.497C853.887 853.804 854.316 854.267 854.657 854.886C854.997 855.506 855.168 856.335 855.168 857.375V866H853.157V864.227H853.054C852.918 864.511 852.691 864.815 852.372 865.139C852.054 865.463 851.631 865.739 851.103 865.966C850.574 866.193 849.929 866.307 849.168 866.307ZM849.475 864.5C850.27 864.5 850.941 864.344 851.486 864.031C852.037 863.719 852.452 863.315 852.73 862.821C853.015 862.327 853.157 861.807 853.157 861.261V859.42C853.071 859.523 852.884 859.616 852.594 859.702C852.31 859.781 851.98 859.852 851.605 859.915C851.236 859.972 850.875 860.023 850.523 860.068C850.176 860.108 849.895 860.142 849.679 860.17C849.157 860.239 848.668 860.349 848.213 860.503C847.765 860.651 847.401 860.875 847.122 861.176C846.85 861.472 846.713 861.875 846.713 862.386C846.713 863.085 846.972 863.614 847.489 863.972C848.012 864.324 848.674 864.5 849.475 864.5ZM858.839 866V852.909H860.85V866H858.839ZM859.862 850.727C859.47 850.727 859.132 850.594 858.848 850.327C858.569 850.06 858.43 849.739 858.43 849.364C858.43 848.989 858.569 848.668 858.848 848.401C859.132 848.134 859.47 848 859.862 848C860.254 848 860.589 848.134 860.867 848.401C861.152 848.668 861.294 848.989 861.294 849.364C861.294 849.739 861.152 850.06 860.867 850.327C860.589 850.594 860.254 850.727 859.862 850.727ZM866.546 858.125V866H864.534V852.909H866.478V854.955H866.648C866.955 854.29 867.421 853.756 868.046 853.352C868.671 852.943 869.478 852.739 870.466 852.739C871.353 852.739 872.128 852.92 872.793 853.284C873.458 853.642 873.975 854.188 874.344 854.92C874.713 855.648 874.898 856.568 874.898 857.682V866H872.887V857.818C872.887 856.79 872.62 855.989 872.086 855.415C871.551 854.835 870.818 854.545 869.887 854.545C869.245 854.545 868.671 854.685 868.165 854.963C867.665 855.241 867.27 855.648 866.98 856.182C866.691 856.716 866.546 857.364 866.546 858.125ZM885.596 866V848.545H891.494C892.863 848.545 893.983 848.793 894.852 849.287C895.727 849.776 896.375 850.438 896.795 851.273C897.215 852.108 897.426 853.04 897.426 854.068C897.426 855.097 897.215 856.031 896.795 856.872C896.38 857.713 895.738 858.384 894.869 858.884C894 859.378 892.886 859.625 891.528 859.625H887.301V857.75H891.46C892.397 857.75 893.15 857.588 893.718 857.264C894.287 856.94 894.698 856.503 894.954 855.952C895.215 855.395 895.346 854.767 895.346 854.068C895.346 853.369 895.215 852.744 894.954 852.193C894.698 851.642 894.284 851.21 893.71 850.898C893.136 850.58 892.375 850.42 891.426 850.42H887.71V866H885.596ZM904.41 866.307C903.581 866.307 902.828 866.151 902.152 865.838C901.475 865.52 900.939 865.062 900.541 864.466C900.143 863.864 899.944 863.136 899.944 862.284C899.944 861.534 900.092 860.926 900.387 860.46C900.683 859.989 901.078 859.619 901.572 859.352C902.066 859.085 902.612 858.886 903.208 858.756C903.811 858.619 904.416 858.511 905.024 858.432C905.819 858.33 906.464 858.253 906.958 858.202C907.458 858.145 907.822 858.051 908.049 857.92C908.282 857.79 908.399 857.562 908.399 857.239V857.17C908.399 856.33 908.169 855.676 907.708 855.21C907.254 854.744 906.564 854.511 905.637 854.511C904.677 854.511 903.924 854.722 903.379 855.142C902.833 855.562 902.45 856.011 902.228 856.489L900.319 855.807C900.66 855.011 901.115 854.392 901.683 853.949C902.257 853.5 902.882 853.187 903.558 853.011C904.24 852.83 904.91 852.739 905.569 852.739C905.99 852.739 906.473 852.79 907.018 852.892C907.569 852.989 908.1 853.19 908.612 853.497C909.129 853.804 909.558 854.267 909.899 854.886C910.24 855.506 910.41 856.335 910.41 857.375V866H908.399V864.227H908.296C908.16 864.511 907.933 864.815 907.615 865.139C907.296 865.463 906.873 865.739 906.345 865.966C905.816 866.193 905.171 866.307 904.41 866.307ZM904.717 864.5C905.512 864.5 906.183 864.344 906.728 864.031C907.279 863.719 907.694 863.315 907.973 862.821C908.257 862.327 908.399 861.807 908.399 861.261V859.42C908.314 859.523 908.126 859.616 907.836 859.702C907.552 859.781 907.223 859.852 906.848 859.915C906.478 859.972 906.117 860.023 905.765 860.068C905.419 860.108 905.137 860.142 904.921 860.17C904.399 860.239 903.91 860.349 903.456 860.503C903.007 860.651 902.643 860.875 902.365 861.176C902.092 861.472 901.956 861.875 901.956 862.386C901.956 863.085 902.214 863.614 902.731 863.972C903.254 864.324 903.916 864.5 904.717 864.5ZM919.365 871.182C918.394 871.182 917.559 871.057 916.86 870.807C916.161 870.562 915.578 870.239 915.113 869.835C914.652 869.438 914.286 869.011 914.013 868.557L915.615 867.432C915.797 867.67 916.027 867.943 916.306 868.25C916.584 868.562 916.965 868.832 917.448 869.06C917.936 869.293 918.576 869.409 919.365 869.409C920.422 869.409 921.294 869.153 921.982 868.642C922.669 868.131 923.013 867.33 923.013 866.239V863.58H922.843C922.695 863.818 922.485 864.114 922.212 864.466C921.945 864.812 921.559 865.122 921.053 865.395C920.553 865.662 919.877 865.795 919.024 865.795C917.968 865.795 917.019 865.545 916.178 865.045C915.343 864.545 914.681 863.818 914.192 862.864C913.709 861.909 913.468 860.75 913.468 859.386C913.468 858.045 913.703 856.878 914.175 855.884C914.647 854.884 915.303 854.111 916.144 853.565C916.985 853.014 917.956 852.739 919.059 852.739C919.911 852.739 920.587 852.881 921.087 853.165C921.593 853.443 921.979 853.761 922.246 854.119C922.519 854.472 922.729 854.761 922.877 854.989H923.081V852.909H925.024V866.375C925.024 867.5 924.769 868.415 924.257 869.119C923.752 869.83 923.07 870.349 922.212 870.679C921.36 871.014 920.411 871.182 919.365 871.182ZM919.297 863.989C920.104 863.989 920.786 863.804 921.343 863.435C921.899 863.065 922.323 862.534 922.613 861.841C922.902 861.148 923.047 860.318 923.047 859.352C923.047 858.409 922.905 857.577 922.621 856.855C922.337 856.134 921.916 855.568 921.36 855.159C920.803 854.75 920.115 854.545 919.297 854.545C918.445 854.545 917.735 854.761 917.166 855.193C916.604 855.625 916.181 856.205 915.897 856.932C915.618 857.659 915.479 858.466 915.479 859.352C915.479 860.261 915.621 861.065 915.905 861.764C916.195 862.457 916.621 863.003 917.184 863.401C917.752 863.793 918.456 863.989 919.297 863.989ZM934.195 866.273C932.934 866.273 931.845 865.994 930.931 865.438C930.022 864.875 929.32 864.091 928.826 863.085C928.337 862.074 928.093 860.898 928.093 859.557C928.093 858.216 928.337 857.034 928.826 856.011C929.32 854.983 930.007 854.182 930.888 853.608C931.774 853.028 932.809 852.739 933.99 852.739C934.672 852.739 935.345 852.852 936.01 853.08C936.675 853.307 937.28 853.676 937.826 854.188C938.371 854.693 938.806 855.364 939.13 856.199C939.453 857.034 939.615 858.062 939.615 859.284V860.136H929.524V858.398H937.57C937.57 857.659 937.422 857 937.127 856.42C936.837 855.841 936.422 855.384 935.882 855.048C935.348 854.713 934.718 854.545 933.99 854.545C933.189 854.545 932.496 854.744 931.911 855.142C931.331 855.534 930.885 856.045 930.573 856.676C930.26 857.307 930.104 857.983 930.104 858.705V859.864C930.104 860.852 930.274 861.69 930.615 862.378C930.962 863.06 931.442 863.58 932.056 863.938C932.669 864.29 933.382 864.466 934.195 864.466C934.723 864.466 935.201 864.392 935.627 864.244C936.059 864.091 936.431 863.864 936.743 863.562C937.056 863.256 937.297 862.875 937.468 862.42L939.411 862.966C939.206 863.625 938.863 864.205 938.38 864.705C937.897 865.199 937.3 865.585 936.59 865.864C935.88 866.136 935.081 866.273 934.195 866.273Z" fill="white"/>
</svg>
